<svg id="svg" xmlns="http://www.w3.org/2000/svg" xmlns:xlink="http://www.w3.org/1999/xlink" width="400" height="569.7674418604652" viewBox="0, 0, 400,569.7674418604652"><g id="svgg"><path id="path0" d="M194.477 0.372 C 174.552 3.521,160.371 13.649,152.263 30.523 C 146.894 41.695,146.911 41.555,146.660 78.634 L 146.441 111.047 116.556 111.047 C 82.412 111.047,82.710 111.008,77.272 116.095 C 71.936 121.086,71.828 121.650,71.630 145.494 L 71.457 166.279 200.000 166.279 L 328.543 166.279 328.370 145.494 C 328.159 120.003,327.467 117.762,318.314 112.886 L 315.407 111.337 286.483 111.171 L 257.558 111.005 257.558 82.668 C 257.558 52.445,257.247 47.527,254.850 39.926 C 246.691 14.050,219.725 -3.618,194.477 0.372 M273.256 71.512 L 273.256 91.279 313.060 91.279 C 352.345 91.279,352.907 91.295,356.199 92.527 C 360.414 94.104,364.565 97.936,366.362 101.911 L 367.733 104.942 367.733 312.500 L 367.733 520.058 366.191 523.346 C 364.207 527.577,360.654 530.998,356.497 532.678 L 353.198 534.012 204.360 534.174 C 97.563 534.291,54.427 534.155,51.643 533.693 C 44.478 532.505,38.834 527.780,36.934 521.380 C 36.146 518.728,36.047 495.360,36.047 312.487 C 36.047 88.180,35.811 103.791,39.264 98.808 C 42.408 94.272,38.903 94.583,85.284 94.722 L 126.744 94.846 126.744 75.020 L 126.744 55.195 78.052 55.359 L 29.360 55.523 24.393 57.302 C 12.917 61.412,5.051 69.750,1.357 81.721 C 0.331 85.045,0.291 93.719,0.291 312.791 L 0.291 540.407 1.877 545.058 C 5.966 557.053,16.277 566.390,28.198 568.893 C 33.234 569.950,364.270 570.226,369.833 569.177 C 382.785 566.736,393.784 554.986,398.395 538.663 L 399.709 534.012 399.861 309.888 C 399.993 115.118,399.902 85.118,399.161 80.825 C 396.811 67.211,386.430 56.024,372.988 52.621 C 370.037 51.874,362.379 51.744,321.389 51.744 L 273.256 51.744 273.256 71.512 M204.754 56.396 C 215.007 59.331,220.520 72.155,216.307 83.268 C 210.709 98.031,187.771 98.876,180.370 84.593 C 172.026 68.490,186.904 51.286,204.754 56.396 M71.512 211.628 L 71.512 221.512 81.395 221.512 L 91.279 221.512 91.279 211.628 L 91.279 201.744 81.395 201.744 L 71.512 201.744 71.512 211.628 M126.744 211.628 L 126.744 221.512 227.616 221.512 L 328.488 221.512 328.488 211.628 L 328.488 201.744 227.616 201.744 L 126.744 201.744 126.744 211.628 M71.512 266.846 L 71.512 276.744 81.409 276.744 L 91.307 276.744 91.148 267.006 L 90.988 257.267 81.250 257.108 L 71.512 256.949 71.512 266.846 M126.744 266.860 L 126.744 276.744 227.616 276.744 L 328.488 276.744 328.488 266.860 L 328.488 256.977 227.616 256.977 L 126.744 256.977 126.744 266.860 M71.512 322.688 L 71.512 332.586 81.250 332.427 L 90.988 332.267 91.148 322.529 L 91.307 312.791 81.409 312.791 L 71.512 312.791 71.512 322.688 M126.744 322.674 L 126.744 332.558 227.616 332.558 L 328.488 332.558 328.488 322.674 L 328.488 312.791 227.616 312.791 L 126.744 312.791 126.744 322.674 M71.512 373.837 L 71.512 383.721 81.395 383.721 L 91.279 383.721 91.279 373.837 L 91.279 363.953 81.395 363.953 L 71.512 363.953 71.512 373.837 M126.744 377.907 L 126.744 387.791 227.616 387.791 L 328.488 387.791 328.488 377.907 L 328.488 368.023 227.616 368.023 L 126.744 368.023 126.744 377.907 M71.512 429.056 L 71.512 438.953 81.409 438.953 L 91.307 438.953 91.148 429.215 L 90.988 419.477 81.250 419.317 L 71.512 419.158 71.512 429.056 M126.744 429.070 L 126.744 438.953 227.616 438.953 L 328.488 438.953 328.488 429.070 L 328.488 419.186 227.616 419.186 L 126.744 419.186 126.744 429.070 M71.512 484.884 L 71.512 494.767 81.395 494.767 L 91.279 494.767 91.279 484.884 L 91.279 475.000 81.395 475.000 L 71.512 475.000 71.512 484.884 M126.744 484.884 L 126.744 494.767 227.616 494.767 L 328.488 494.767 328.488 484.884 L 328.488 475.000 227.616 475.000 L 126.744 475.000 126.744 484.884 " stroke="none" fill="#fff" fill-rule="evenodd"></path></g></svg>