<svg id="svg" xmlns="http://www.w3.org/2000/svg" xmlns:xlink="http://www.w3.org/1999/xlink" width="400" height="518.5185185185185" viewBox="0, 0, 400,518.5185185185185"><g id="svgg"><path id="path0" d="M229.362 110.468 L 118.837 220.936 111.270 251.171 C 98.673 301.506,98.046 300.853,147.222 288.546 L 178.704 280.667 286.706 173.204 C 392.990 67.450,401.214 58.595,399.161 52.125 C 397.120 45.696,349.050 0.000,344.327 0.000 C 340.926 0.000,314.013 25.861,229.362 110.468 M358.853 41.257 L 372.242 54.737 362.038 64.813 L 351.835 74.890 337.960 61.109 L 324.086 47.327 333.739 37.552 C 345.547 25.595,342.909 25.206,358.853 41.257 M2.799 46.930 C -2.165 54.506,-0.485 512.230,4.521 515.890 C 9.912 519.832,390.088 519.832,395.479 515.890 C 399.846 512.698,402.223 139.495,397.943 129.143 C 395.602 123.481,388.196 120.596,383.510 123.520 C 375.934 128.247,375.982 127.051,375.953 315.278 L 375.926 496.296 200.000 496.296 L 24.074 496.296 24.074 280.556 L 24.074 64.815 130.269 64.815 C 247.669 64.815,242.593 65.339,242.593 53.227 C 242.593 42.149,247.654 42.593,121.207 42.593 L 5.641 42.593 2.799 46.930 M251.279 175.573 L 166.469 260.398 149.637 264.503 C 129.156 269.498,130.141 270.510,135.171 249.618 L 139.314 232.407 223.813 147.689 L 308.311 62.970 322.200 76.859 L 336.089 90.748 251.279 175.573 " stroke="none" fill="#000000" fill-rule="evenodd"></path></g></svg>