<svg id="svg" xmlns="http://www.w3.org/2000/svg" xmlns:xlink="http://www.w3.org/1999/xlink" width="400" height="533.3333333333334" viewBox="0, 0, 400,533.3333333333334"><g id="svgg"><path id="path0" d="M194.338 1.541 C 186.056 4.575,186.395 -2.002,186.395 155.972 L 186.395 299.968 164.966 278.839 C 127.470 241.868,126.220 240.816,119.784 240.816 C 110.064 240.816,104.058 251.029,108.730 259.613 C 109.955 261.865,147.283 299.025,178.414 328.985 C 202.560 352.222,194.370 356.173,263.719 287.828 C 292.586 259.379,292.517 259.464,292.517 252.409 C 292.517 245.416,287.636 240.816,280.216 240.816 C 273.780 240.816,272.530 241.868,235.034 278.839 L 213.605 299.968 213.605 155.972 C 213.605 -3.261,214.034 4.560,205.129 1.455 C 200.254 -0.244,199.189 -0.236,194.338 1.541 M10.093 160.646 C -0.188 163.632,0.723 146.472,0.321 344.700 C 0.054 476.209,0.366 522.748,1.533 525.574 C 4.925 533.790,-6.745 533.333,200.000 533.333 C 405.735 533.333,394.795 533.744,398.375 525.888 C 400.434 521.368,400.751 173.580,398.700 168.187 C 395.534 159.858,395.889 159.902,328.293 159.471 L 266.667 159.079 266.667 172.737 L 266.667 186.395 319.728 186.395 L 372.789 186.395 372.789 346.259 L 372.789 506.122 200.000 506.122 L 27.211 506.122 27.211 346.259 L 27.211 186.395 80.272 186.395 L 133.333 186.395 133.333 172.789 L 133.333 159.184 73.810 159.306 C 41.071 159.374,12.399 159.977,10.093 160.646 " stroke="none" fill="#000000" fill-rule="evenodd"></path></g></svg>