<svg id="svg" xmlns="http://www.w3.org/2000/svg" xmlns:xlink="http://www.w3.org/1999/xlink" width="400" height="322.8" viewBox="0, 0, 400,322.8"><g id="svgg"><path id="path0" d="M264.000 0.247 C 256.066 1.702,242.783 10.042,241.385 14.446 C 241.254 14.861,241.004 15.200,240.831 15.200 C 240.543 15.200,236.639 22.724,235.954 24.600 C 235.631 25.486,235.169 27.368,234.973 28.600 C 233.889 35.415,233.855 35.988,234.352 39.068 C 234.629 40.790,234.910 42.613,234.975 43.117 C 235.086 43.978,236.200 45.159,236.926 45.187 C 237.657 45.216,243.542 48.136,246.761 50.068 C 255.270 55.173,264.232 63.451,269.588 71.154 C 272.173 74.870,287.948 69.094,295.587 61.635 C 299.767 57.553,306.049 47.515,305.048 46.515 C 304.927 46.394,305.001 45.971,305.213 45.576 C 306.624 42.939,306.604 29.893,305.183 26.155 C 304.941 25.520,304.783 25.000,304.831 25.000 C 305.211 25.000,301.883 17.483,301.200 16.800 C 301.090 16.690,300.422 15.771,299.716 14.757 C 295.665 8.942,288.418 3.714,281.200 1.398 C 277.870 0.330,267.378 -0.372,264.000 0.247 M275.400 35.800 L 275.400 52.000 270.300 52.000 L 265.200 52.000 265.200 41.200 L 265.200 30.400 261.106 30.400 L 257.011 30.400 262.400 25.000 L 267.789 19.600 271.594 19.600 L 275.400 19.600 275.400 35.800 M202.207 62.218 C 188.615 63.860,174.889 71.741,167.172 82.335 C 166.637 83.069,166.014 83.879,165.786 84.135 C 159.241 91.502,155.337 109.338,157.438 122.274 C 159.998 138.040,170.985 152.631,185.805 159.946 C 206.799 170.308,234.115 164.374,248.106 146.412 C 249.225 144.975,250.413 143.575,250.746 143.300 C 251.080 143.025,251.230 142.800,251.080 142.800 C 250.930 142.800,251.112 142.445,251.483 142.011 C 252.779 140.498,256.879 132.214,257.428 130.000 C 257.510 129.670,257.770 128.680,258.007 127.800 C 260.247 119.462,260.549 110.124,258.828 102.400 C 258.608 101.410,258.344 100.207,258.242 99.726 C 258.139 99.245,257.833 98.435,257.560 97.926 C 257.288 97.417,257.098 96.954,257.140 96.898 C 257.575 96.305,254.133 89.197,251.318 84.878 C 248.393 80.389,242.478 74.211,238.619 71.614 C 235.005 69.181,233.902 68.522,231.222 67.193 C 222.004 62.622,212.436 60.982,202.207 62.218 M215.694 113.400 L 215.800 136.400 208.300 136.400 L 200.800 136.400 200.800 121.000 L 200.800 105.600 194.904 105.600 L 189.008 105.600 196.600 98.000 L 204.192 90.400 209.890 90.400 L 215.587 90.400 215.694 113.400 M93.600 156.854 C 85.417 157.371,74.740 160.182,65.891 164.150 C 65.181 164.468,62.170 165.754,59.200 167.008 C 56.230 168.262,52.850 169.718,51.688 170.244 C 50.527 170.770,49.502 171.200,49.412 171.200 C 49.321 171.200,47.696 171.920,45.800 172.800 C 43.904 173.680,42.269 174.400,42.168 174.400 C 42.066 174.400,40.439 175.120,38.552 176.000 C 36.665 176.880,35.062 177.600,34.989 177.600 C 34.917 177.600,33.540 178.208,31.929 178.951 C 30.318 179.694,26.930 181.245,24.400 182.398 C 21.870 183.550,18.297 185.192,16.460 186.047 C 14.623 186.901,13.067 187.600,13.001 187.600 C 12.936 187.600,10.839 188.566,8.341 189.748 C 5.843 190.929,2.922 192.279,1.850 192.747 C -0.709 193.865,-0.741 193.713,4.309 204.400 C 4.880 205.610,5.360 206.704,5.374 206.831 C 5.388 206.958,5.705 207.678,6.078 208.431 C 7.103 210.499,8.992 214.573,9.031 214.800 C 9.050 214.910,9.644 216.250,10.351 217.779 C 11.728 220.753,12.161 221.707,13.770 225.300 C 14.337 226.565,15.264 228.635,15.830 229.900 C 16.791 232.047,17.836 234.338,19.614 238.200 C 20.835 240.853,21.768 242.988,21.799 243.200 C 21.815 243.310,22.677 245.164,23.714 247.320 C 24.751 249.475,25.600 251.314,25.600 251.404 C 25.600 251.495,26.410 253.303,27.400 255.422 C 28.390 257.540,29.200 259.335,29.200 259.409 C 29.200 259.589,31.292 264.203,33.235 268.307 C 34.096 270.127,34.800 271.689,34.800 271.780 C 34.800 271.870,35.377 273.172,36.083 274.672 C 36.789 276.172,37.389 277.490,37.416 277.600 C 37.477 277.846,38.767 280.715,40.024 283.400 C 40.538 284.500,40.975 285.490,40.994 285.600 C 41.034 285.833,43.656 291.336,43.821 291.532 C 43.970 291.710,45.381 290.955,47.800 289.402 C 49.877 288.070,53.956 285.450,60.300 281.376 C 62.334 280.069,64.437 278.730,64.971 278.400 C 74.182 272.713,76.143 271.809,81.508 270.776 C 84.499 270.200,88.424 270.708,93.179 272.287 C 95.636 273.102,117.453 283.854,120.558 285.780 C 121.021 286.067,124.910 288.104,129.200 290.306 C 133.490 292.508,141.770 296.787,147.600 299.813 C 188.683 321.143,192.374 322.558,207.000 322.585 C 220.751 322.611,223.440 321.569,247.408 306.931 C 258.677 300.050,268.140 293.965,300.800 272.605 C 322.798 258.217,379.879 220.230,383.200 217.768 C 401.391 204.282,405.116 192.091,394.123 182.018 C 384.963 173.625,369.224 174.618,351.933 184.681 C 350.686 185.406,349.606 185.999,349.533 185.998 C 349.460 185.996,349.393 184.289,349.385 182.202 C 349.375 179.784,349.194 178.234,348.885 177.925 C 348.618 177.658,348.400 177.152,348.400 176.800 C 348.400 174.823,342.653 170.181,338.780 169.031 C 331.246 166.794,316.968 168.841,310.000 173.157 C 308.321 174.197,304.665 176.896,303.470 177.977 C 302.354 178.988,302.334 178.991,301.772 178.200 C 291.046 163.113,276.939 164.224,248.000 182.435 C 245.910 183.750,243.930 184.939,243.600 185.078 C 243.270 185.217,242.550 185.640,242.000 186.018 C 241.450 186.397,240.370 187.063,239.600 187.498 C 238.830 187.934,236.599 189.215,234.643 190.345 C 232.686 191.475,231.048 192.400,231.003 192.400 C 230.958 192.400,229.052 193.480,226.767 194.800 C 224.482 196.120,222.385 197.200,222.106 197.200 C 221.136 197.200,221.609 197.925,222.900 198.415 C 223.790 198.752,229.186 199.011,240.000 199.235 C 268.004 199.816,277.974 201.959,285.827 209.086 C 291.556 214.285,294.826 226.770,292.745 235.494 C 292.092 238.232,292.106 238.172,292.056 238.502 C 291.088 244.817,281.049 253.540,270.600 257.146 C 260.702 260.562,257.313 260.795,217.800 260.784 C 180.181 260.774,175.697 260.485,169.000 257.638 C 160.385 253.976,158.059 252.803,152.800 249.467 C 150.085 247.745,145.175 244.289,143.800 243.131 C 143.360 242.761,141.650 241.338,140.000 239.970 C 134.173 235.136,131.793 232.754,133.513 233.475 C 137.336 235.079,143.302 237.120,151.600 239.663 C 155.899 240.980,165.998 243.474,169.200 244.009 C 170.850 244.284,173.190 244.690,174.400 244.910 C 178.566 245.667,252.744 245.735,257.147 244.985 C 264.214 243.781,269.690 241.829,273.200 239.263 C 274.794 238.097,276.894 236.003,276.477 235.994 C 276.325 235.991,276.380 235.856,276.601 235.694 C 278.472 234.321,278.898 226.021,277.258 222.876 C 273.939 216.510,266.175 214.639,241.200 214.188 C 226.883 213.930,219.143 213.467,214.800 212.609 C 199.353 209.558,181.517 202.407,172.000 195.450 C 158.021 185.232,147.257 177.567,142.600 174.516 C 141.060 173.507,139.080 172.204,138.200 171.622 C 137.320 171.039,136.330 170.437,136.000 170.284 C 135.670 170.130,134.230 169.258,132.800 168.345 C 131.370 167.432,128.940 165.981,127.400 165.120 C 124.911 163.728,123.714 163.139,119.000 160.983 C 111.568 157.586,103.298 156.241,93.600 156.854 " stroke="none" fill="#fff" fill-rule="evenodd"></path></g></svg>