<svg id="svg" xmlns="http://www.w3.org/2000/svg" xmlns:xlink="http://www.w3.org/1999/xlink" width="400" height="400.9685230024213" viewBox="0, 0, 400,400.9685230024213"><g id="svgg"><path id="path0" d="M180.900 0.269 C 176.927 0.395,176.000 0.536,176.000 1.012 C 176.000 1.490,175.252 1.600,172.000 1.600 C 169.600 1.600,168.000 1.760,168.000 2.000 C 168.000 2.229,166.800 2.400,165.200 2.400 C 162.978 2.400,162.400 2.524,162.400 3.000 C 162.400 3.467,161.867 3.600,160.000 3.600 C 158.667 3.600,157.600 3.778,157.600 4.000 C 157.600 4.220,156.700 4.400,155.600 4.400 C 154.500 4.400,153.600 4.580,153.600 4.800 C 153.600 5.022,152.533 5.200,151.200 5.200 C 149.333 5.200,148.800 5.333,148.800 5.800 C 148.800 6.219,148.378 6.400,147.400 6.400 C 146.630 6.400,146.000 6.580,146.000 6.800 C 146.000 7.020,145.100 7.200,144.000 7.200 C 142.489 7.200,142.000 7.347,142.000 7.800 C 142.000 8.219,141.578 8.400,140.600 8.400 C 139.830 8.400,139.200 8.580,139.200 8.800 C 139.200 9.020,138.480 9.200,137.600 9.200 C 136.444 9.200,136.000 9.367,136.000 9.800 C 136.000 10.219,135.578 10.400,134.600 10.400 C 133.830 10.400,133.200 10.580,133.200 10.800 C 133.200 11.020,132.570 11.200,131.800 11.200 C 131.030 11.200,130.400 11.380,130.400 11.600 C 130.400 11.820,129.950 12.000,129.400 12.000 C 128.778 12.000,128.400 12.227,128.400 12.600 C 128.400 13.019,127.978 13.200,127.000 13.200 C 126.230 13.200,125.600 13.380,125.600 13.600 C 125.600 13.820,125.150 14.000,124.600 14.000 C 123.978 14.000,123.600 14.227,123.600 14.600 C 123.600 15.019,123.178 15.200,122.200 15.200 C 121.430 15.200,120.800 15.380,120.800 15.600 C 120.800 15.820,120.350 16.000,119.800 16.000 C 119.178 16.000,118.800 16.227,118.800 16.600 C 118.800 16.973,118.422 17.200,117.800 17.200 C 117.250 17.200,116.800 17.380,116.800 17.600 C 116.800 17.820,116.170 18.000,115.400 18.000 C 114.630 18.000,114.000 18.180,114.000 18.400 C 114.000 18.620,113.550 18.800,113.000 18.800 C 112.378 18.800,112.000 19.027,112.000 19.400 C 112.000 19.773,111.622 20.000,111.000 20.000 C 110.450 20.000,110.000 20.180,110.000 20.400 C 110.000 20.620,109.550 20.800,109.000 20.800 C 108.378 20.800,108.000 21.027,108.000 21.400 C 108.000 21.773,107.622 22.000,107.000 22.000 C 106.450 22.000,106.000 22.180,106.000 22.400 C 106.000 22.620,105.627 22.800,105.171 22.800 C 104.286 22.800,103.200 23.666,103.200 24.371 C 103.200 24.607,102.750 24.800,102.200 24.800 C 101.650 24.800,101.200 24.980,101.200 25.200 C 101.200 25.420,100.750 25.600,100.200 25.600 C 99.578 25.600,99.200 25.827,99.200 26.200 C 99.200 26.540,98.841 26.800,98.371 26.800 C 97.486 26.800,96.400 27.666,96.400 28.371 C 96.400 28.607,95.950 28.800,95.400 28.800 C 94.850 28.800,94.400 28.980,94.400 29.200 C 94.400 29.420,94.027 29.600,93.571 29.600 C 92.686 29.600,91.600 30.466,91.600 31.171 C 91.600 31.407,91.227 31.600,90.771 31.600 C 89.886 31.600,88.800 32.466,88.800 33.171 C 88.800 33.407,88.350 33.600,87.800 33.600 C 87.250 33.600,86.800 33.780,86.800 34.000 C 86.800 34.220,86.530 34.400,86.200 34.400 C 85.870 34.400,85.600 34.580,85.600 34.800 C 85.600 35.020,85.240 35.200,84.800 35.200 C 84.356 35.200,84.000 35.467,84.000 35.800 C 84.000 36.130,83.807 36.400,83.571 36.400 C 83.018 36.400,82.000 37.418,82.000 37.971 C 82.000 38.207,81.550 38.400,81.000 38.400 C 80.450 38.400,80.000 38.580,80.000 38.800 C 80.000 39.020,79.730 39.200,79.400 39.200 C 79.070 39.200,78.800 39.393,78.800 39.629 C 78.800 40.276,77.742 41.200,77.000 41.200 C 76.258 41.200,75.200 42.124,75.200 42.771 C 75.200 43.007,75.007 43.200,74.771 43.200 C 74.218 43.200,73.200 44.218,73.200 44.771 C 73.200 45.007,72.827 45.200,72.371 45.200 C 71.486 45.200,70.400 46.066,70.400 46.771 C 70.400 47.007,70.204 47.200,69.964 47.200 C 69.725 47.200,68.741 48.010,67.779 49.000 C 66.817 49.990,65.663 50.800,65.215 50.800 C 64.767 50.800,64.400 50.993,64.400 51.229 C 64.400 51.695,63.415 52.800,63.000 52.800 C 62.585 52.800,61.600 53.905,61.600 54.371 C 61.600 54.607,61.407 54.800,61.171 54.800 C 60.705 54.800,59.600 55.785,59.600 56.200 C 59.600 56.615,58.495 57.600,58.029 57.600 C 57.793 57.600,57.600 57.793,57.600 58.029 C 57.600 58.495,56.615 59.600,56.200 59.600 C 55.866 59.600,54.800 60.666,54.800 61.000 C 54.800 61.415,53.695 62.400,53.229 62.400 C 52.993 62.400,52.800 62.593,52.800 62.829 C 52.800 63.382,51.782 64.400,51.229 64.400 C 50.993 64.400,50.800 64.670,50.800 65.000 C 50.800 65.330,50.620 65.600,50.400 65.600 C 50.180 65.600,50.000 65.873,50.000 66.207 C 50.000 66.541,49.370 67.426,48.600 68.174 C 47.830 68.921,47.200 69.728,47.200 69.967 C 47.200 70.205,46.970 70.400,46.688 70.400 C 46.407 70.400,45.917 70.760,45.600 71.200 C 45.283 71.640,44.793 72.000,44.512 72.000 C 44.230 72.000,44.000 72.450,44.000 73.000 C 44.000 73.550,43.820 74.000,43.600 74.000 C 43.380 74.000,43.200 74.270,43.200 74.600 C 43.200 74.930,43.007 75.200,42.771 75.200 C 42.124 75.200,41.200 76.258,41.200 77.000 C 41.200 77.742,40.276 78.800,39.629 78.800 C 39.393 78.800,39.200 78.993,39.200 79.229 C 39.200 79.782,38.182 80.800,37.629 80.800 C 37.393 80.800,37.200 81.250,37.200 81.800 C 37.200 82.350,37.020 82.800,36.800 82.800 C 36.580 82.800,36.400 83.070,36.400 83.400 C 36.400 83.730,36.220 84.000,36.000 84.000 C 35.780 84.000,35.600 84.360,35.600 84.800 C 35.600 85.244,35.333 85.600,35.000 85.600 C 34.670 85.600,34.400 85.870,34.400 86.200 C 34.400 86.530,34.220 86.800,34.000 86.800 C 33.780 86.800,33.600 87.250,33.600 87.800 C 33.600 88.350,33.407 88.800,33.171 88.800 C 32.466 88.800,31.600 89.886,31.600 90.771 C 31.600 91.227,31.407 91.600,31.171 91.600 C 30.466 91.600,29.600 92.686,29.600 93.571 C 29.600 94.027,29.420 94.400,29.200 94.400 C 28.980 94.400,28.800 94.670,28.800 95.000 C 28.800 95.330,28.530 95.600,28.200 95.600 C 27.867 95.600,27.600 95.956,27.600 96.400 C 27.600 96.840,27.420 97.200,27.200 97.200 C 26.980 97.200,26.800 97.650,26.800 98.200 C 26.800 98.822,26.573 99.200,26.200 99.200 C 25.843 99.200,25.600 99.567,25.600 100.105 C 25.600 100.604,25.151 101.347,24.600 101.761 C 24.050 102.174,23.600 102.847,23.600 103.256 C 23.600 103.665,23.420 104.000,23.200 104.000 C 22.980 104.000,22.800 104.450,22.800 105.000 C 22.800 105.550,22.620 106.000,22.400 106.000 C 22.180 106.000,22.000 106.450,22.000 107.000 C 22.000 107.622,21.773 108.000,21.400 108.000 C 21.027 108.000,20.800 108.378,20.800 109.000 C 20.800 109.550,20.620 110.000,20.400 110.000 C 20.180 110.000,20.000 110.450,20.000 111.000 C 20.000 111.622,19.773 112.000,19.400 112.000 C 19.027 112.000,18.800 112.378,18.800 113.000 C 18.800 113.550,18.620 114.000,18.400 114.000 C 18.180 114.000,18.000 114.360,18.000 114.800 C 18.000 115.240,17.820 115.600,17.600 115.600 C 17.380 115.600,17.200 116.050,17.200 116.600 C 17.200 117.222,16.973 117.600,16.600 117.600 C 16.181 117.600,16.000 118.022,16.000 119.000 C 16.000 119.770,15.820 120.400,15.600 120.400 C 15.380 120.400,15.200 120.850,15.200 121.400 C 15.200 122.022,14.973 122.400,14.600 122.400 C 14.227 122.400,14.000 122.778,14.000 123.400 C 14.000 123.950,13.820 124.400,13.600 124.400 C 13.380 124.400,13.200 125.011,13.200 125.757 C 13.200 126.595,12.970 127.203,12.600 127.345 C 12.270 127.471,12.000 127.941,12.000 128.387 C 12.000 128.834,11.820 129.200,11.600 129.200 C 11.380 129.200,11.200 129.920,11.200 130.800 C 11.200 131.680,11.020 132.400,10.800 132.400 C 10.580 132.400,10.400 133.030,10.400 133.800 C 10.400 134.778,10.219 135.200,9.800 135.200 C 9.381 135.200,9.200 135.622,9.200 136.600 C 9.200 137.370,9.020 138.000,8.800 138.000 C 8.580 138.000,8.400 138.630,8.400 139.400 C 8.400 140.378,8.219 140.800,7.800 140.800 C 7.347 140.800,7.200 141.289,7.200 142.800 C 7.200 143.900,7.020 144.800,6.800 144.800 C 6.580 144.800,6.400 145.430,6.400 146.200 C 6.400 147.178,6.219 147.600,5.800 147.600 C 5.347 147.600,5.200 148.089,5.200 149.600 C 5.200 150.700,5.020 151.600,4.800 151.600 C 4.578 151.600,4.400 152.667,4.400 154.000 C 4.400 155.333,4.222 156.400,4.000 156.400 C 3.780 156.400,3.600 157.300,3.600 158.400 C 3.600 159.911,3.453 160.400,3.000 160.400 C 2.524 160.400,2.400 160.978,2.400 163.200 C 2.400 164.800,2.229 166.000,2.000 166.000 C 1.769 166.000,1.600 167.267,1.600 169.000 C 1.600 171.244,1.465 172.000,1.063 172.000 C 0.330 172.000,-0.000 180.949,0.001 200.764 C 0.003 220.341,0.323 228.800,1.063 228.800 C 1.465 228.800,1.600 229.555,1.600 231.800 C 1.600 233.533,1.769 234.800,2.000 234.800 C 2.229 234.800,2.400 236.000,2.400 237.600 C 2.400 239.822,2.524 240.400,3.000 240.400 C 3.453 240.400,3.600 240.889,3.600 242.400 C 3.600 243.500,3.780 244.400,4.000 244.400 C 4.222 244.400,4.400 245.467,4.400 246.800 C 4.400 248.133,4.578 249.200,4.800 249.200 C 5.020 249.200,5.200 250.100,5.200 251.200 C 5.200 252.711,5.347 253.200,5.800 253.200 C 6.219 253.200,6.400 253.622,6.400 254.600 C 6.400 255.370,6.580 256.000,6.800 256.000 C 7.020 256.000,7.200 256.900,7.200 258.000 C 7.200 259.511,7.347 260.000,7.800 260.000 C 8.219 260.000,8.400 260.422,8.400 261.400 C 8.400 262.170,8.580 262.800,8.800 262.800 C 9.020 262.800,9.200 263.430,9.200 264.200 C 9.200 265.178,9.381 265.600,9.800 265.600 C 10.233 265.600,10.400 266.044,10.400 267.200 C 10.400 268.080,10.580 268.800,10.800 268.800 C 11.020 268.800,11.200 269.430,11.200 270.200 C 11.200 270.970,11.380 271.600,11.600 271.600 C 11.820 271.600,12.000 272.050,12.000 272.600 C 12.000 273.222,12.227 273.600,12.600 273.600 C 13.019 273.600,13.200 274.022,13.200 275.000 C 13.200 275.770,13.380 276.400,13.600 276.400 C 13.820 276.400,14.000 276.850,14.000 277.400 C 14.000 278.022,14.227 278.400,14.600 278.400 C 14.973 278.400,15.200 278.778,15.200 279.400 C 15.200 279.950,15.380 280.400,15.600 280.400 C 15.820 280.400,16.000 281.030,16.000 281.800 C 16.000 282.778,16.181 283.200,16.600 283.200 C 16.973 283.200,17.200 283.578,17.200 284.200 C 17.200 284.750,17.380 285.200,17.600 285.200 C 17.820 285.200,18.000 285.650,18.000 286.200 C 18.000 286.750,18.180 287.200,18.400 287.200 C 18.620 287.200,18.800 287.560,18.800 288.000 C 18.800 288.444,19.067 288.800,19.400 288.800 C 19.773 288.800,20.000 289.178,20.000 289.800 C 20.000 290.350,20.180 290.800,20.400 290.800 C 20.620 290.800,20.800 291.250,20.800 291.800 C 20.800 292.422,21.027 292.800,21.400 292.800 C 21.773 292.800,22.000 293.178,22.000 293.800 C 22.000 294.350,22.180 294.800,22.400 294.800 C 22.620 294.800,22.800 295.250,22.800 295.800 C 22.800 296.350,22.980 296.800,23.200 296.800 C 23.420 296.800,23.600 297.250,23.600 297.800 C 23.600 298.350,23.793 298.800,24.029 298.800 C 24.734 298.800,25.600 299.886,25.600 300.771 C 25.600 301.241,25.860 301.600,26.200 301.600 C 26.573 301.600,26.800 301.978,26.800 302.600 C 26.800 303.150,26.980 303.600,27.200 303.600 C 27.420 303.600,27.600 304.050,27.600 304.600 C 27.600 305.150,27.793 305.600,28.029 305.600 C 28.676 305.600,29.600 306.658,29.600 307.400 C 29.600 308.142,30.524 309.200,31.171 309.200 C 31.407 309.200,31.600 309.650,31.600 310.200 C 31.600 310.750,31.780 311.200,32.000 311.200 C 32.220 311.200,32.400 311.470,32.400 311.800 C 32.400 312.130,32.670 312.400,33.000 312.400 C 33.333 312.400,33.600 312.756,33.600 313.200 C 33.600 313.640,33.780 314.000,34.000 314.000 C 34.220 314.000,34.400 314.270,34.400 314.600 C 34.400 314.930,34.670 315.200,35.000 315.200 C 35.358 315.200,35.600 315.568,35.600 316.112 C 35.600 316.613,35.960 317.283,36.400 317.600 C 36.840 317.917,37.200 318.587,37.200 319.088 C 37.200 319.590,37.393 320.000,37.629 320.000 C 38.182 320.000,39.200 321.018,39.200 321.571 C 39.200 321.807,39.393 322.000,39.629 322.000 C 40.276 322.000,41.200 323.058,41.200 323.800 C 41.200 324.542,42.124 325.600,42.771 325.600 C 43.007 325.600,43.200 325.870,43.200 326.200 C 43.200 326.530,43.380 326.800,43.600 326.800 C 43.820 326.800,44.000 327.250,44.000 327.800 C 44.000 328.350,44.193 328.800,44.429 328.800 C 44.982 328.800,46.000 329.818,46.000 330.371 C 46.000 330.607,46.188 330.800,46.418 330.800 C 46.961 330.800,48.800 332.639,48.800 333.182 C 48.800 333.412,49.070 333.600,49.400 333.600 C 49.740 333.600,50.000 333.959,50.000 334.429 C 50.000 335.213,50.843 336.400,51.400 336.400 C 51.815 336.400,52.800 337.505,52.800 337.971 C 52.800 338.207,52.993 338.400,53.229 338.400 C 53.695 338.400,54.800 339.385,54.800 339.800 C 54.800 340.215,55.905 341.200,56.371 341.200 C 56.607 341.200,56.800 341.393,56.800 341.629 C 56.800 342.095,57.785 343.200,58.200 343.200 C 58.534 343.200,59.600 344.266,59.600 344.600 C 59.600 345.015,60.705 346.000,61.171 346.000 C 61.407 346.000,61.600 346.193,61.600 346.429 C 61.600 346.982,62.618 348.000,63.171 348.000 C 63.407 348.000,63.600 348.193,63.600 348.429 C 63.600 349.076,64.658 350.000,65.400 350.000 C 66.142 350.000,67.200 350.924,67.200 351.571 C 67.200 351.807,67.393 352.000,67.629 352.000 C 68.182 352.000,69.200 353.018,69.200 353.571 C 69.200 353.807,69.430 354.000,69.712 354.000 C 69.993 354.000,70.483 354.360,70.800 354.800 C 71.117 355.240,71.787 355.600,72.288 355.600 C 72.790 355.600,73.200 355.793,73.200 356.029 C 73.200 356.582,74.218 357.600,74.771 357.600 C 75.007 357.600,75.200 357.793,75.200 358.029 C 75.200 358.734,76.286 359.600,77.171 359.600 C 77.627 359.600,78.000 359.793,78.000 360.029 C 78.000 360.582,79.018 361.600,79.571 361.600 C 79.807 361.600,80.000 361.780,80.000 362.000 C 80.000 362.220,80.450 362.400,81.000 362.400 C 81.550 362.400,82.000 362.593,82.000 362.829 C 82.000 363.534,83.086 364.400,83.971 364.400 C 84.427 364.400,84.800 364.593,84.800 364.829 C 84.800 365.382,85.818 366.400,86.371 366.400 C 86.607 366.400,86.800 366.580,86.800 366.800 C 86.800 367.020,87.250 367.200,87.800 367.200 C 88.350 367.200,88.800 367.393,88.800 367.629 C 88.800 368.334,89.886 369.200,90.771 369.200 C 91.241 369.200,91.600 369.460,91.600 369.800 C 91.600 370.140,91.959 370.400,92.429 370.400 C 93.314 370.400,94.400 371.266,94.400 371.971 C 94.400 372.207,94.810 372.400,95.312 372.400 C 95.813 372.400,96.483 372.760,96.800 373.200 C 97.117 373.640,97.787 374.000,98.288 374.000 C 98.832 374.000,99.200 374.242,99.200 374.600 C 99.200 374.973,99.578 375.200,100.200 375.200 C 100.750 375.200,101.200 375.380,101.200 375.600 C 101.200 375.820,101.650 376.000,102.200 376.000 C 102.822 376.000,103.200 376.227,103.200 376.600 C 103.200 376.940,103.559 377.200,104.029 377.200 C 104.914 377.200,106.000 378.066,106.000 378.771 C 106.000 379.007,106.450 379.200,107.000 379.200 C 107.550 379.200,108.000 379.380,108.000 379.600 C 108.000 379.820,108.450 380.000,109.000 380.000 C 109.550 380.000,110.000 380.180,110.000 380.400 C 110.000 380.620,110.450 380.800,111.000 380.800 C 111.622 380.800,112.000 381.027,112.000 381.400 C 112.000 381.819,112.422 382.000,113.400 382.000 C 114.170 382.000,114.800 382.180,114.800 382.400 C 114.800 382.620,115.250 382.800,115.800 382.800 C 116.422 382.800,116.800 383.027,116.800 383.400 C 116.800 383.773,117.178 384.000,117.800 384.000 C 118.350 384.000,118.800 384.180,118.800 384.400 C 118.800 384.620,119.250 384.800,119.800 384.800 C 120.350 384.800,120.800 384.980,120.800 385.200 C 120.800 385.420,121.430 385.600,122.200 385.600 C 123.178 385.600,123.600 385.781,123.600 386.200 C 123.600 386.573,123.978 386.800,124.600 386.800 C 125.150 386.800,125.600 386.980,125.600 387.200 C 125.600 387.420,126.230 387.600,127.000 387.600 C 127.978 387.600,128.400 387.781,128.400 388.200 C 128.400 388.573,128.778 388.800,129.400 388.800 C 129.950 388.800,130.400 388.980,130.400 389.200 C 130.400 389.420,131.030 389.600,131.800 389.600 C 132.778 389.600,133.200 389.781,133.200 390.200 C 133.200 390.619,133.622 390.800,134.600 390.800 C 135.370 390.800,136.000 390.980,136.000 391.200 C 136.000 391.420,136.720 391.600,137.600 391.600 C 138.480 391.600,139.200 391.780,139.200 392.000 C 139.200 392.220,140.010 392.400,141.000 392.400 C 142.333 392.400,142.800 392.556,142.800 393.000 C 142.800 393.433,143.244 393.600,144.400 393.600 C 145.280 393.600,146.000 393.780,146.000 394.000 C 146.000 394.220,146.810 394.400,147.800 394.400 C 149.133 394.400,149.600 394.556,149.600 395.000 C 149.600 395.453,150.089 395.600,151.600 395.600 C 152.700 395.600,153.600 395.780,153.600 396.000 C 153.600 396.220,154.500 396.400,155.600 396.400 C 157.111 396.400,157.600 396.547,157.600 397.000 C 157.600 397.476,158.178 397.600,160.400 397.600 C 162.000 397.600,163.200 397.771,163.200 398.000 C 163.200 398.222,164.267 398.400,165.600 398.400 C 166.933 398.400,168.000 398.578,168.000 398.800 C 168.000 399.040,169.600 399.200,172.000 399.200 C 175.079 399.200,176.000 399.324,176.000 399.737 C 176.000 400.670,198.419 401.115,216.300 400.535 C 222.677 400.329,224.400 400.159,224.400 399.737 C 224.400 399.325,225.289 399.200,228.200 399.200 C 230.467 399.200,232.000 399.039,232.000 398.800 C 232.000 398.578,233.067 398.400,234.400 398.400 C 235.733 398.400,236.800 398.222,236.800 398.000 C 236.800 397.771,238.004 397.600,239.613 397.600 C 241.744 397.600,242.481 397.455,242.655 397.000 C 242.812 396.593,243.450 396.400,244.643 396.400 C 245.609 396.400,246.400 396.220,246.400 396.000 C 246.400 395.780,247.300 395.600,248.400 395.600 C 249.911 395.600,250.400 395.453,250.400 395.000 C 250.400 394.547,250.889 394.400,252.400 394.400 C 253.500 394.400,254.400 394.220,254.400 394.000 C 254.400 393.780,255.030 393.600,255.800 393.600 C 256.778 393.600,257.200 393.419,257.200 393.000 C 257.200 392.547,257.689 392.400,259.200 392.400 C 260.300 392.400,261.200 392.220,261.200 392.000 C 261.200 391.780,261.830 391.600,262.600 391.600 C 263.370 391.600,264.000 391.420,264.000 391.200 C 264.000 390.980,264.630 390.800,265.400 390.800 C 266.378 390.800,266.800 390.619,266.800 390.200 C 266.800 389.781,267.222 389.600,268.200 389.600 C 268.970 389.600,269.600 389.420,269.600 389.200 C 269.600 388.980,270.050 388.800,270.600 388.800 C 271.222 388.800,271.600 388.573,271.600 388.200 C 271.600 387.781,272.022 387.600,273.000 387.600 C 273.770 387.600,274.400 387.420,274.400 387.200 C 274.400 386.980,274.850 386.800,275.400 386.800 C 276.022 386.800,276.400 386.573,276.400 386.200 C 276.400 385.767,276.844 385.600,278.000 385.600 C 278.880 385.600,279.600 385.420,279.600 385.200 C 279.600 384.980,279.960 384.800,280.400 384.800 C 280.840 384.800,281.200 384.620,281.200 384.400 C 281.200 384.180,281.650 384.000,282.200 384.000 C 282.822 384.000,283.200 383.773,283.200 383.400 C 283.200 383.027,283.578 382.800,284.200 382.800 C 284.750 382.800,285.200 382.620,285.200 382.400 C 285.200 382.180,285.830 382.000,286.600 382.000 C 287.578 382.000,288.000 381.819,288.000 381.400 C 288.000 381.027,288.378 380.800,289.000 380.800 C 289.550 380.800,290.000 380.620,290.000 380.400 C 290.000 380.180,290.450 380.000,291.000 380.000 C 291.550 380.000,292.000 379.820,292.000 379.600 C 292.000 379.380,292.450 379.200,293.000 379.200 C 293.550 379.200,294.000 379.007,294.000 378.771 C 294.000 378.066,295.086 377.200,295.971 377.200 C 296.441 377.200,296.800 376.940,296.800 376.600 C 296.800 376.227,297.178 376.000,297.800 376.000 C 298.350 376.000,298.800 375.820,298.800 375.600 C 298.800 375.380,299.250 375.200,299.800 375.200 C 300.422 375.200,300.800 374.973,300.800 374.600 C 300.800 374.242,301.168 374.000,301.712 374.000 C 302.213 374.000,302.883 373.640,303.200 373.200 C 303.517 372.760,304.187 372.400,304.688 372.400 C 305.190 372.400,305.600 372.207,305.600 371.971 C 305.600 371.266,306.686 370.400,307.571 370.400 C 308.041 370.400,308.400 370.140,308.400 369.800 C 308.400 369.460,308.759 369.200,309.229 369.200 C 310.114 369.200,311.200 368.334,311.200 367.629 C 311.200 367.393,311.650 367.200,312.200 367.200 C 312.750 367.200,313.200 367.020,313.200 366.800 C 313.200 366.580,313.393 366.400,313.629 366.400 C 314.182 366.400,315.200 365.382,315.200 364.829 C 315.200 364.593,315.573 364.400,316.029 364.400 C 316.914 364.400,318.000 363.534,318.000 362.829 C 318.000 362.593,318.450 362.400,319.000 362.400 C 319.550 362.400,320.000 362.220,320.000 362.000 C 320.000 361.780,320.193 361.600,320.429 361.600 C 320.982 361.600,322.000 360.582,322.000 360.029 C 322.000 359.793,322.373 359.600,322.829 359.600 C 323.714 359.600,324.800 358.734,324.800 358.029 C 324.800 357.793,324.993 357.600,325.229 357.600 C 325.782 357.600,326.800 356.582,326.800 356.029 C 326.800 355.793,327.210 355.600,327.712 355.600 C 328.213 355.600,328.883 355.240,329.200 354.800 C 329.517 354.360,330.007 354.000,330.288 354.000 C 330.570 354.000,330.800 353.807,330.800 353.571 C 330.800 353.018,331.818 352.000,332.371 352.000 C 332.607 352.000,332.800 351.807,332.800 351.571 C 332.800 350.924,333.858 350.000,334.600 350.000 C 335.342 350.000,336.400 349.076,336.400 348.429 C 336.400 348.193,336.593 348.000,336.829 348.000 C 337.382 348.000,338.400 346.982,338.400 346.429 C 338.400 346.193,338.593 346.000,338.829 346.000 C 339.382 346.000,340.400 344.982,340.400 344.429 C 340.400 344.193,340.588 344.000,340.818 344.000 C 341.361 344.000,343.200 342.161,343.200 341.618 C 343.200 341.388,343.393 341.200,343.629 341.200 C 344.182 341.200,345.200 340.182,345.200 339.629 C 345.200 339.393,345.393 339.200,345.629 339.200 C 346.095 339.200,347.200 338.215,347.200 337.800 C 347.200 337.385,348.305 336.400,348.771 336.400 C 349.007 336.400,349.200 336.027,349.200 335.571 C 349.200 334.686,350.066 333.600,350.771 333.600 C 351.007 333.600,351.200 333.407,351.200 333.171 C 351.200 332.705,352.185 331.600,352.600 331.600 C 352.934 331.600,354.000 330.534,354.000 330.200 C 354.000 329.785,355.105 328.800,355.571 328.800 C 355.807 328.800,356.000 328.350,356.000 327.800 C 356.000 327.250,356.180 326.800,356.400 326.800 C 356.620 326.800,356.800 326.530,356.800 326.200 C 356.800 325.870,356.993 325.600,357.229 325.600 C 357.934 325.600,358.800 324.514,358.800 323.629 C 358.800 323.173,358.993 322.800,359.229 322.800 C 359.782 322.800,360.800 321.782,360.800 321.229 C 360.800 320.993,360.980 320.800,361.200 320.800 C 361.420 320.800,361.600 320.350,361.600 319.800 C 361.600 319.250,361.782 318.800,362.004 318.800 C 362.673 318.800,364.800 316.561,364.800 315.857 C 364.800 315.496,364.980 315.200,365.200 315.200 C 365.420 315.200,365.600 314.930,365.600 314.600 C 365.600 314.270,365.780 314.000,366.000 314.000 C 366.220 314.000,366.400 313.640,366.400 313.200 C 366.400 312.756,366.667 312.400,367.000 312.400 C 367.330 312.400,367.600 312.130,367.600 311.800 C 367.600 311.470,367.780 311.200,368.000 311.200 C 368.220 311.200,368.400 310.750,368.400 310.200 C 368.400 309.650,368.593 309.200,368.829 309.200 C 369.534 309.200,370.400 308.114,370.400 307.229 C 370.400 306.773,370.593 306.400,370.829 306.400 C 371.534 306.400,372.400 305.314,372.400 304.429 C 372.400 303.973,372.580 303.600,372.800 303.600 C 373.020 303.600,373.200 303.150,373.200 302.600 C 373.200 301.978,373.427 301.600,373.800 301.600 C 374.140 301.600,374.400 301.241,374.400 300.771 C 374.400 299.886,375.266 298.800,375.971 298.800 C 376.207 298.800,376.400 298.350,376.400 297.800 C 376.400 297.250,376.580 296.800,376.800 296.800 C 377.020 296.800,377.200 296.350,377.200 295.800 C 377.200 295.178,377.427 294.800,377.800 294.800 C 378.173 294.800,378.400 294.422,378.400 293.800 C 378.400 293.250,378.580 292.800,378.800 292.800 C 379.020 292.800,379.200 292.350,379.200 291.800 C 379.200 291.250,379.380 290.800,379.600 290.800 C 379.820 290.800,380.000 290.350,380.000 289.800 C 380.000 289.178,380.227 288.800,380.600 288.800 C 380.933 288.800,381.200 288.444,381.200 288.000 C 381.200 287.560,381.380 287.200,381.600 287.200 C 381.820 287.200,382.000 286.750,382.000 286.200 C 382.000 285.578,382.227 285.200,382.600 285.200 C 382.973 285.200,383.200 284.822,383.200 284.200 C 383.200 283.650,383.380 283.200,383.600 283.200 C 383.820 283.200,384.000 282.570,384.000 281.800 C 384.000 281.030,384.180 280.400,384.400 280.400 C 384.620 280.400,384.800 279.950,384.800 279.400 C 384.800 278.778,385.027 278.400,385.400 278.400 C 385.773 278.400,386.000 278.022,386.000 277.400 C 386.000 276.850,386.180 276.400,386.400 276.400 C 386.620 276.400,386.800 275.770,386.800 275.000 C 386.800 274.022,386.981 273.600,387.400 273.600 C 387.773 273.600,388.000 273.222,388.000 272.600 C 388.000 272.050,388.180 271.600,388.400 271.600 C 388.620 271.600,388.800 270.989,388.800 270.243 C 388.800 269.405,389.030 268.797,389.400 268.655 C 389.777 268.511,390.000 267.899,390.000 267.013 C 390.000 266.236,390.180 265.600,390.400 265.600 C 390.620 265.600,390.800 264.970,390.800 264.200 C 390.800 263.430,390.980 262.800,391.200 262.800 C 391.420 262.800,391.600 262.170,391.600 261.400 C 391.600 260.422,391.781 260.000,392.200 260.000 C 392.653 260.000,392.800 259.511,392.800 258.000 C 392.800 256.900,392.980 256.000,393.200 256.000 C 393.420 256.000,393.600 255.370,393.600 254.600 C 393.600 253.622,393.781 253.200,394.200 253.200 C 394.653 253.200,394.800 252.711,394.800 251.200 C 394.800 250.100,394.980 249.200,395.200 249.200 C 395.422 249.200,395.600 248.133,395.600 246.800 C 395.600 244.933,395.733 244.400,396.200 244.400 C 396.653 244.400,396.800 243.911,396.800 242.400 C 396.800 241.300,396.980 240.400,397.200 240.400 C 397.429 240.400,397.600 239.200,397.600 237.600 C 397.600 236.000,397.771 234.800,398.000 234.800 C 398.231 234.800,398.400 233.533,398.400 231.800 C 398.400 229.555,398.535 228.800,398.937 228.800 C 399.677 228.800,399.997 220.341,399.999 200.764 C 400.000 180.949,399.670 172.000,398.937 172.000 C 398.535 172.000,398.400 171.244,398.400 169.000 C 398.400 167.267,398.231 166.000,398.000 166.000 C 397.771 166.000,397.600 164.800,397.600 163.200 C 397.600 161.600,397.429 160.400,397.200 160.400 C 396.980 160.400,396.800 159.500,396.800 158.400 C 396.800 156.889,396.653 156.400,396.200 156.400 C 395.733 156.400,395.600 155.867,395.600 154.000 C 395.600 152.667,395.422 151.600,395.200 151.600 C 394.980 151.600,394.800 150.700,394.800 149.600 C 394.800 148.089,394.653 147.600,394.200 147.600 C 393.781 147.600,393.600 147.178,393.600 146.200 C 393.600 145.430,393.420 144.800,393.200 144.800 C 392.980 144.800,392.800 143.900,392.800 142.800 C 392.800 141.289,392.653 140.800,392.200 140.800 C 391.781 140.800,391.600 140.378,391.600 139.400 C 391.600 138.630,391.420 138.000,391.200 138.000 C 390.980 138.000,390.800 137.370,390.800 136.600 C 390.800 135.830,390.620 135.200,390.400 135.200 C 390.180 135.200,390.000 134.570,390.000 133.800 C 390.000 132.822,389.819 132.400,389.400 132.400 C 388.967 132.400,388.800 131.956,388.800 130.800 C 388.800 129.920,388.620 129.200,388.400 129.200 C 388.180 129.200,388.000 128.750,388.000 128.200 C 388.000 127.578,387.773 127.200,387.400 127.200 C 386.981 127.200,386.800 126.778,386.800 125.800 C 386.800 125.030,386.620 124.400,386.400 124.400 C 386.180 124.400,386.000 123.950,386.000 123.400 C 386.000 122.778,385.773 122.400,385.400 122.400 C 385.027 122.400,384.800 122.022,384.800 121.400 C 384.800 120.850,384.620 120.400,384.400 120.400 C 384.180 120.400,384.000 119.770,384.000 119.000 C 384.000 118.230,383.820 117.600,383.600 117.600 C 383.380 117.600,383.200 117.234,383.200 116.787 C 383.200 116.341,382.930 115.871,382.600 115.745 C 382.270 115.618,382.000 115.174,382.000 114.757 C 382.000 114.341,381.820 114.000,381.600 114.000 C 381.380 114.000,381.200 113.550,381.200 113.000 C 381.200 112.378,380.973 112.000,380.600 112.000 C 380.227 112.000,380.000 111.622,380.000 111.000 C 380.000 110.450,379.820 110.000,379.600 110.000 C 379.380 110.000,379.200 109.550,379.200 109.000 C 379.200 108.450,379.020 108.000,378.800 108.000 C 378.580 108.000,378.400 107.550,378.400 107.000 C 378.400 106.378,378.173 106.000,377.800 106.000 C 377.427 106.000,377.200 105.622,377.200 105.000 C 377.200 104.450,377.020 104.000,376.800 104.000 C 376.580 104.000,376.400 103.550,376.400 103.000 C 376.400 102.450,376.207 102.000,375.971 102.000 C 375.266 102.000,374.400 100.914,374.400 100.029 C 374.400 99.559,374.140 99.200,373.800 99.200 C 373.427 99.200,373.200 98.822,373.200 98.200 C 373.200 97.650,373.020 97.200,372.800 97.200 C 372.580 97.200,372.400 96.840,372.400 96.400 C 372.400 95.960,372.220 95.600,372.000 95.600 C 371.780 95.600,371.600 95.330,371.600 95.000 C 371.600 94.670,371.330 94.400,371.000 94.400 C 370.660 94.400,370.400 94.041,370.400 93.571 C 370.400 92.686,369.534 91.600,368.829 91.600 C 368.593 91.600,368.400 91.227,368.400 90.771 C 368.400 89.886,367.534 88.800,366.829 88.800 C 366.593 88.800,366.400 88.350,366.400 87.800 C 366.400 87.250,366.220 86.800,366.000 86.800 C 365.780 86.800,365.600 86.530,365.600 86.200 C 365.600 85.870,365.420 85.600,365.200 85.600 C 364.980 85.600,364.800 85.240,364.800 84.800 C 364.800 84.356,364.533 84.000,364.200 84.000 C 363.870 84.000,363.600 83.730,363.600 83.400 C 363.600 83.070,363.420 82.800,363.200 82.800 C 362.980 82.800,362.800 82.350,362.800 81.800 C 362.800 81.250,362.607 80.800,362.371 80.800 C 361.905 80.800,360.800 79.815,360.800 79.400 C 360.800 78.985,359.695 78.000,359.229 78.000 C 358.993 78.000,358.800 77.627,358.800 77.171 C 358.800 76.286,357.934 75.200,357.229 75.200 C 356.993 75.200,356.800 74.930,356.800 74.600 C 356.800 74.270,356.620 74.000,356.400 74.000 C 356.180 74.000,356.000 73.550,356.000 73.000 C 356.000 72.450,355.812 72.000,355.582 72.000 C 355.039 72.000,353.200 70.161,353.200 69.618 C 353.200 69.388,353.007 69.200,352.771 69.200 C 352.218 69.200,351.200 68.182,351.200 67.629 C 351.200 67.393,350.930 67.200,350.600 67.200 C 350.267 67.200,350.000 66.844,350.000 66.400 C 350.000 65.960,349.820 65.600,349.600 65.600 C 349.380 65.600,349.200 65.330,349.200 65.000 C 349.200 64.670,349.007 64.400,348.771 64.400 C 348.305 64.400,347.200 63.415,347.200 63.000 C 347.200 62.585,346.095 61.600,345.629 61.600 C 345.393 61.600,345.200 61.407,345.200 61.171 C 345.200 60.705,344.215 59.600,343.800 59.600 C 343.466 59.600,342.400 58.534,342.400 58.200 C 342.400 57.785,341.295 56.800,340.829 56.800 C 340.593 56.800,340.400 56.607,340.400 56.371 C 340.400 55.818,339.382 54.800,338.829 54.800 C 338.593 54.800,338.400 54.607,338.400 54.371 C 338.400 53.905,337.415 52.800,337.000 52.800 C 336.585 52.800,335.600 51.695,335.600 51.229 C 335.600 50.993,335.227 50.800,334.771 50.800 C 333.886 50.800,332.800 49.934,332.800 49.229 C 332.800 48.993,332.570 48.800,332.288 48.800 C 332.007 48.800,331.517 48.440,331.200 48.000 C 330.883 47.560,330.393 47.200,330.112 47.200 C 329.830 47.200,329.600 47.007,329.600 46.771 C 329.600 46.066,328.514 45.200,327.629 45.200 C 327.173 45.200,326.800 45.007,326.800 44.771 C 326.800 44.218,325.782 43.200,325.229 43.200 C 324.993 43.200,324.800 43.007,324.800 42.771 C 324.800 42.124,323.742 41.200,323.000 41.200 C 322.258 41.200,321.200 40.276,321.200 39.629 C 321.200 39.393,320.930 39.200,320.600 39.200 C 320.270 39.200,320.000 39.020,320.000 38.800 C 320.000 38.580,319.550 38.400,319.000 38.400 C 318.450 38.400,318.000 38.218,318.000 37.996 C 318.000 37.327,315.761 35.200,315.057 35.200 C 314.696 35.200,314.400 35.020,314.400 34.800 C 314.400 34.580,314.130 34.400,313.800 34.400 C 313.470 34.400,313.200 34.220,313.200 34.000 C 313.200 33.780,312.750 33.600,312.200 33.600 C 311.650 33.600,311.200 33.407,311.200 33.171 C 311.200 32.466,310.114 31.600,309.229 31.600 C 308.759 31.600,308.400 31.340,308.400 31.000 C 308.400 30.642,308.032 30.400,307.488 30.400 C 306.987 30.400,306.317 30.040,306.000 29.600 C 305.683 29.160,305.013 28.800,304.512 28.800 C 304.010 28.800,303.600 28.607,303.600 28.371 C 303.600 27.666,302.514 26.800,301.629 26.800 C 301.159 26.800,300.800 26.540,300.800 26.200 C 300.800 25.827,300.422 25.600,299.800 25.600 C 299.250 25.600,298.800 25.420,298.800 25.200 C 298.800 24.980,298.350 24.800,297.800 24.800 C 297.250 24.800,296.800 24.607,296.800 24.371 C 296.800 23.666,295.714 22.800,294.829 22.800 C 294.373 22.800,294.000 22.620,294.000 22.400 C 294.000 22.180,293.550 22.000,293.000 22.000 C 292.378 22.000,292.000 21.773,292.000 21.400 C 292.000 21.027,291.622 20.800,291.000 20.800 C 290.450 20.800,290.000 20.620,290.000 20.400 C 290.000 20.180,289.550 20.000,289.000 20.000 C 288.378 20.000,288.000 19.773,288.000 19.400 C 288.000 19.027,287.622 18.800,287.000 18.800 C 286.450 18.800,286.000 18.620,286.000 18.400 C 286.000 18.180,285.370 18.000,284.600 18.000 C 283.830 18.000,283.200 17.820,283.200 17.600 C 283.200 17.380,282.750 17.200,282.200 17.200 C 281.578 17.200,281.200 16.973,281.200 16.600 C 281.200 16.267,280.844 16.000,280.400 16.000 C 279.960 16.000,279.600 15.820,279.600 15.600 C 279.600 15.380,278.880 15.200,278.000 15.200 C 276.844 15.200,276.400 15.033,276.400 14.600 C 276.400 14.227,276.022 14.000,275.400 14.000 C 274.850 14.000,274.400 13.820,274.400 13.600 C 274.400 13.380,273.770 13.200,273.000 13.200 C 272.022 13.200,271.600 13.019,271.600 12.600 C 271.600 12.227,271.222 12.000,270.600 12.000 C 270.050 12.000,269.600 11.820,269.600 11.600 C 269.600 11.380,268.970 11.200,268.200 11.200 C 267.430 11.200,266.800 11.020,266.800 10.800 C 266.800 10.580,266.170 10.400,265.400 10.400 C 264.422 10.400,264.000 10.219,264.000 9.800 C 264.000 9.381,263.578 9.200,262.600 9.200 C 261.830 9.200,261.200 9.020,261.200 8.800 C 261.200 8.580,260.480 8.400,259.600 8.400 C 258.444 8.400,258.000 8.233,258.000 7.800 C 258.000 7.356,257.533 7.200,256.200 7.200 C 255.210 7.200,254.400 7.020,254.400 6.800 C 254.400 6.580,253.680 6.400,252.800 6.400 C 251.644 6.400,251.200 6.233,251.200 5.800 C 251.200 5.333,250.667 5.200,248.800 5.200 C 247.467 5.200,246.400 5.022,246.400 4.800 C 246.400 4.580,245.590 4.400,244.600 4.400 C 243.610 4.400,242.800 4.220,242.800 4.000 C 242.800 3.774,241.667 3.600,240.200 3.600 C 238.156 3.600,237.600 3.472,237.600 3.000 C 237.600 2.524,237.022 2.400,234.800 2.400 C 233.200 2.400,232.000 2.229,232.000 2.000 C 232.000 1.763,230.515 1.600,228.344 1.600 C 225.453 1.600,224.590 1.466,224.220 0.959 C 223.743 0.308,194.405 -0.160,180.900 0.269 M204.800 34.800 C 204.800 35.051,207.333 35.200,211.600 35.200 C 217.378 35.200,218.400 35.290,218.400 35.800 C 218.400 36.286,219.044 36.400,221.800 36.400 C 223.800 36.400,225.200 36.565,225.200 36.800 C 225.200 37.031,226.467 37.200,228.200 37.200 C 230.600 37.200,231.200 37.320,231.200 37.800 C 231.200 38.267,231.733 38.400,233.600 38.400 C 234.933 38.400,236.000 38.578,236.000 38.800 C 236.000 39.020,236.810 39.200,237.800 39.200 C 238.790 39.200,239.600 39.380,239.600 39.600 C 239.600 39.820,240.500 40.000,241.600 40.000 C 243.111 40.000,243.600 40.147,243.600 40.600 C 243.600 41.019,244.022 41.200,245.000 41.200 C 245.770 41.200,246.400 41.380,246.400 41.600 C 246.400 41.820,247.120 42.000,248.000 42.000 C 249.156 42.000,249.600 42.167,249.600 42.600 C 249.600 43.019,250.022 43.200,251.000 43.200 C 251.770 43.200,252.400 43.380,252.400 43.600 C 252.400 43.820,253.030 44.000,253.800 44.000 C 254.778 44.000,255.200 44.181,255.200 44.600 C 255.200 45.019,255.622 45.200,256.600 45.200 C 257.370 45.200,258.000 45.380,258.000 45.600 C 258.000 45.820,258.450 46.000,259.000 46.000 C 259.550 46.000,260.000 46.180,260.000 46.400 C 260.000 46.620,260.720 46.800,261.600 46.800 C 262.756 46.800,263.200 46.967,263.200 47.400 C 263.200 47.733,263.556 48.000,264.000 48.000 C 264.440 48.000,264.800 48.180,264.800 48.400 C 264.800 48.620,265.520 48.800,266.400 48.800 C 267.556 48.800,268.000 48.967,268.000 49.400 C 268.000 49.733,268.356 50.000,268.800 50.000 C 269.240 50.000,269.600 50.180,269.600 50.400 C 269.600 50.620,270.050 50.800,270.600 50.800 C 271.150 50.800,271.600 50.980,271.600 51.200 C 271.600 51.420,272.050 51.600,272.600 51.600 C 273.222 51.600,273.600 51.827,273.600 52.200 C 273.600 52.573,273.978 52.800,274.600 52.800 C 275.150 52.800,275.600 52.980,275.600 53.200 C 275.600 53.420,276.050 53.600,276.600 53.600 C 277.222 53.600,277.600 53.827,277.600 54.200 C 277.600 54.540,277.959 54.800,278.429 54.800 C 279.314 54.800,280.400 55.666,280.400 56.371 C 280.400 56.607,280.850 56.800,281.400 56.800 C 281.950 56.800,282.400 56.980,282.400 57.200 C 282.400 57.420,282.773 57.600,283.229 57.600 C 284.114 57.600,285.200 58.466,285.200 59.171 C 285.200 59.407,285.650 59.600,286.200 59.600 C 286.750 59.600,287.200 59.780,287.200 60.000 C 287.200 60.220,287.650 60.400,288.200 60.400 C 288.750 60.400,289.200 60.593,289.200 60.829 C 289.200 61.534,290.286 62.400,291.171 62.400 C 291.641 62.400,292.000 62.660,292.000 63.000 C 292.000 63.330,292.270 63.600,292.600 63.600 C 292.930 63.600,293.200 63.780,293.200 64.000 C 293.200 64.220,293.560 64.400,294.000 64.400 C 294.440 64.400,294.800 64.580,294.800 64.800 C 294.800 65.020,295.070 65.200,295.400 65.200 C 295.730 65.200,296.000 65.393,296.000 65.629 C 296.000 66.334,297.086 67.200,297.971 67.200 C 298.441 67.200,298.800 67.460,298.800 67.800 C 298.800 68.130,299.030 68.400,299.312 68.400 C 299.593 68.400,300.083 68.760,300.400 69.200 C 300.717 69.640,301.387 70.000,301.888 70.000 C 302.390 70.000,302.800 70.193,302.800 70.429 C 302.800 70.982,303.818 72.000,304.371 72.000 C 304.607 72.000,304.800 72.182,304.800 72.404 C 304.800 73.073,307.039 75.200,307.743 75.200 C 308.104 75.200,308.400 75.380,308.400 75.600 C 308.400 75.820,308.593 76.000,308.829 76.000 C 309.382 76.000,310.400 77.018,310.400 77.571 C 310.400 77.807,310.593 78.000,310.829 78.000 C 311.295 78.000,312.400 78.985,312.400 79.400 C 312.400 79.815,313.505 80.800,313.971 80.800 C 314.207 80.800,314.400 80.993,314.400 81.229 C 314.400 81.695,315.385 82.800,315.800 82.800 C 316.215 82.800,317.200 83.905,317.200 84.371 C 317.200 84.607,317.393 84.800,317.629 84.800 C 318.095 84.800,319.200 85.785,319.200 86.200 C 319.200 86.534,320.266 87.600,320.600 87.600 C 321.015 87.600,322.000 88.705,322.000 89.171 C 322.000 89.407,322.193 89.600,322.429 89.600 C 322.982 89.600,324.000 90.618,324.000 91.171 C 324.000 91.407,324.270 91.600,324.600 91.600 C 324.938 91.600,325.200 91.958,325.200 92.418 C 325.200 93.269,326.853 95.200,327.582 95.200 C 327.812 95.200,328.000 95.393,328.000 95.629 C 328.000 96.182,329.018 97.200,329.571 97.200 C 329.807 97.200,330.000 97.610,330.000 98.112 C 330.000 98.613,330.360 99.283,330.800 99.600 C 331.240 99.917,331.600 100.407,331.600 100.688 C 331.600 100.970,331.870 101.200,332.200 101.200 C 332.540 101.200,332.800 101.559,332.800 102.029 C 332.800 102.914,333.666 104.000,334.371 104.000 C 334.607 104.000,334.800 104.270,334.800 104.600 C 334.800 104.930,334.980 105.200,335.200 105.200 C 335.420 105.200,335.600 105.560,335.600 106.000 C 335.600 106.444,335.867 106.800,336.200 106.800 C 336.530 106.800,336.800 107.070,336.800 107.400 C 336.800 107.730,336.980 108.000,337.200 108.000 C 337.420 108.000,337.600 108.373,337.600 108.829 C 337.600 109.714,338.466 110.800,339.171 110.800 C 339.407 110.800,339.600 111.173,339.600 111.629 C 339.600 112.514,340.466 113.600,341.171 113.600 C 341.407 113.600,341.600 114.050,341.600 114.600 C 341.600 115.222,341.373 115.600,341.000 115.600 C 340.670 115.600,340.400 115.793,340.400 116.029 C 340.400 116.582,339.382 117.600,338.829 117.600 C 338.593 117.600,338.400 117.788,338.400 118.018 C 338.400 118.248,337.958 118.878,337.418 119.418 C 336.878 119.958,336.248 120.400,336.018 120.400 C 335.788 120.400,335.600 120.593,335.600 120.829 C 335.600 121.382,334.582 122.400,334.029 122.400 C 333.793 122.400,333.600 122.593,333.600 122.829 C 333.600 123.382,332.582 124.400,332.029 124.400 C 331.793 124.400,331.600 124.588,331.600 124.818 C 331.600 125.361,329.761 127.200,329.218 127.200 C 328.988 127.200,328.800 127.393,328.800 127.629 C 328.800 128.182,327.782 129.200,327.229 129.200 C 326.993 129.200,326.800 129.430,326.800 129.712 C 326.800 129.993,326.440 130.483,326.000 130.800 C 325.560 131.117,325.200 131.607,325.200 131.888 C 325.200 132.170,324.970 132.400,324.688 132.400 C 324.407 132.400,323.917 132.760,323.600 133.200 C 323.283 133.640,322.793 134.000,322.512 134.000 C 322.230 134.000,322.000 134.193,322.000 134.429 C 322.000 134.982,320.982 136.000,320.429 136.000 C 320.193 136.000,320.000 136.188,320.000 136.418 C 320.000 136.961,318.161 138.800,317.618 138.800 C 317.388 138.800,317.200 138.993,317.200 139.229 C 317.200 139.782,316.182 140.800,315.629 140.800 C 315.393 140.800,315.200 140.993,315.200 141.229 C 315.200 141.782,314.182 142.800,313.629 142.800 C 313.393 142.800,313.200 142.988,313.200 143.218 C 313.200 143.761,311.361 145.600,310.818 145.600 C 310.588 145.600,310.400 145.793,310.400 146.029 C 310.400 146.264,310.143 146.714,309.829 147.029 C 309.514 147.343,309.064 147.600,308.829 147.600 C 308.593 147.600,308.400 147.793,308.400 148.029 C 308.400 148.264,308.143 148.714,307.829 149.029 C 307.514 149.343,307.064 149.600,306.829 149.600 C 306.593 149.600,306.400 149.788,306.400 150.018 C 306.400 150.561,304.561 152.400,304.018 152.400 C 303.788 152.400,303.600 152.593,303.600 152.829 C 303.600 153.382,302.582 154.400,302.029 154.400 C 301.793 154.400,301.600 154.588,301.600 154.818 C 301.600 155.361,299.761 157.200,299.218 157.200 C 298.988 157.200,298.800 157.393,298.800 157.629 C 298.800 158.182,297.782 159.200,297.229 159.200 C 296.993 159.200,296.800 159.393,296.800 159.629 C 296.800 160.182,295.782 161.200,295.229 161.200 C 294.993 161.200,294.800 161.388,294.800 161.618 C 294.800 162.161,292.961 164.000,292.418 164.000 C 292.188 164.000,292.000 164.193,292.000 164.429 C 292.000 164.982,290.982 166.000,290.429 166.000 C 290.193 166.000,290.000 166.193,290.000 166.429 C 290.000 166.895,289.015 168.000,288.600 168.000 C 288.266 168.000,287.200 169.066,287.200 169.400 C 287.200 169.815,286.095 170.800,285.629 170.800 C 285.393 170.800,285.200 170.993,285.200 171.229 C 285.200 171.782,284.182 172.800,283.629 172.800 C 283.393 172.800,283.200 172.988,283.200 173.218 C 283.200 173.761,281.361 175.600,280.818 175.600 C 280.588 175.600,280.400 175.793,280.400 176.029 C 280.400 176.582,279.382 177.600,278.829 177.600 C 278.593 177.600,278.400 177.793,278.400 178.029 C 278.400 178.582,277.382 179.600,276.829 179.600 C 276.593 179.600,276.400 179.788,276.400 180.018 C 276.400 180.248,275.958 180.878,275.418 181.418 C 274.878 181.958,274.248 182.400,274.018 182.400 C 273.788 182.400,273.600 182.593,273.600 182.829 C 273.600 183.382,272.582 184.400,272.029 184.400 C 271.793 184.400,271.600 184.593,271.600 184.829 C 271.600 185.295,270.615 186.400,270.200 186.400 C 269.866 186.400,268.800 187.466,268.800 187.800 C 268.800 188.215,267.695 189.200,267.229 189.200 C 266.993 189.200,266.800 189.393,266.800 189.629 C 266.800 190.182,265.782 191.200,265.229 191.200 C 264.993 191.200,264.800 191.388,264.800 191.618 C 264.800 192.161,262.961 194.000,262.418 194.000 C 262.188 194.000,262.000 194.193,262.000 194.429 C 262.000 194.982,260.982 196.000,260.429 196.000 C 260.193 196.000,260.000 196.193,260.000 196.429 C 260.000 196.982,258.982 198.000,258.429 198.000 C 258.193 198.000,258.000 198.188,258.000 198.418 C 258.000 198.961,256.161 200.800,255.618 200.800 C 255.388 200.800,255.200 200.993,255.200 201.229 C 255.200 201.782,254.182 202.800,253.629 202.800 C 253.393 202.800,253.200 202.993,253.200 203.229 C 253.200 203.695,252.215 204.800,251.800 204.800 C 251.466 204.800,250.400 205.866,250.400 206.200 C 250.400 206.615,249.295 207.600,248.829 207.600 C 248.593 207.600,248.400 207.793,248.400 208.029 C 248.400 208.582,247.382 209.600,246.829 209.600 C 246.593 209.600,246.400 209.788,246.400 210.018 C 246.400 210.561,244.561 212.400,244.018 212.400 C 243.788 212.400,243.600 212.593,243.600 212.829 C 243.600 213.382,242.582 214.400,242.029 214.400 C 241.793 214.400,241.600 214.593,241.600 214.829 C 241.600 215.382,240.582 216.400,240.029 216.400 C 239.793 216.400,239.600 216.588,239.600 216.818 C 239.600 217.361,237.761 219.200,237.218 219.200 C 236.988 219.200,236.800 219.393,236.800 219.629 C 236.800 220.182,235.782 221.200,235.229 221.200 C 234.993 221.200,234.800 221.393,234.800 221.629 C 234.800 222.095,233.815 223.200,233.400 223.200 C 233.066 223.200,232.000 224.266,232.000 224.600 C 232.000 225.015,230.895 226.000,230.429 226.000 C 230.193 226.000,230.000 226.193,230.000 226.429 C 230.000 226.982,228.982 228.000,228.429 228.000 C 228.193 228.000,228.000 228.188,228.000 228.418 C 228.000 228.961,226.161 230.800,225.618 230.800 C 225.388 230.800,225.200 230.993,225.200 231.229 C 225.200 231.782,224.182 232.800,223.629 232.800 C 223.393 232.800,223.200 232.993,223.200 233.229 C 223.200 233.695,222.215 234.800,221.800 234.800 C 221.466 234.800,220.400 235.866,220.400 236.200 C 220.400 236.615,219.295 237.600,218.829 237.600 C 218.593 237.600,218.400 237.793,218.400 238.029 C 218.400 238.582,217.382 239.600,216.829 239.600 C 216.593 239.600,216.400 239.793,216.400 240.029 C 216.400 240.495,215.415 241.600,215.000 241.600 C 214.666 241.600,213.600 242.666,213.600 243.000 C 213.600 243.415,212.495 244.400,212.029 244.400 C 211.793 244.400,211.600 244.593,211.600 244.829 C 211.600 245.382,210.582 246.400,210.029 246.400 C 209.793 246.400,209.600 246.588,209.600 246.818 C 209.600 247.361,207.761 249.200,207.218 249.200 C 206.988 249.200,206.800 249.393,206.800 249.629 C 206.800 250.182,205.782 251.200,205.229 251.200 C 204.993 251.200,204.800 251.393,204.800 251.629 C 204.800 252.095,203.815 253.200,203.400 253.200 C 203.066 253.200,202.000 254.266,202.000 254.600 C 202.000 255.015,200.895 256.000,200.429 256.000 C 200.193 256.000,200.000 256.193,200.000 256.429 C 200.000 256.982,198.982 258.000,198.429 258.000 C 198.193 258.000,198.000 258.193,198.000 258.429 C 198.000 258.895,197.015 260.000,196.600 260.000 C 196.266 260.000,195.200 261.066,195.200 261.400 C 195.200 261.815,194.095 262.800,193.629 262.800 C 193.393 262.800,193.200 263.070,193.200 263.400 C 193.200 263.730,193.022 264.000,192.804 264.000 C 192.549 264.000,192.370 256.905,192.304 244.100 L 192.200 224.200 174.900 224.096 L 157.600 223.992 157.600 274.796 L 157.600 325.600 208.400 325.600 L 259.200 325.600 259.200 308.200 L 259.200 290.800 238.400 290.800 C 224.800 290.800,217.600 290.662,217.600 290.400 C 217.600 290.180,217.780 290.000,218.000 290.000 C 218.220 290.000,218.400 289.807,218.400 289.571 C 218.400 289.105,219.385 288.000,219.800 288.000 C 220.215 288.000,221.200 286.895,221.200 286.429 C 221.200 286.193,221.393 286.000,221.629 286.000 C 222.182 286.000,223.200 284.982,223.200 284.429 C 223.200 284.193,223.388 284.000,223.618 284.000 C 224.161 284.000,226.000 282.161,226.000 281.618 C 226.000 281.388,226.193 281.200,226.429 281.200 C 226.982 281.200,228.000 280.182,228.000 279.629 C 228.000 279.393,228.193 279.200,228.429 279.200 C 228.895 279.200,230.000 278.215,230.000 277.800 C 230.000 277.466,231.066 276.400,231.400 276.400 C 231.815 276.400,232.800 275.295,232.800 274.829 C 232.800 274.593,232.993 274.400,233.229 274.400 C 233.782 274.400,234.800 273.382,234.800 272.829 C 234.800 272.593,234.993 272.400,235.229 272.400 C 235.695 272.400,236.800 271.415,236.800 271.000 C 236.800 270.666,237.866 269.600,238.200 269.600 C 238.615 269.600,239.600 268.495,239.600 268.029 C 239.600 267.793,239.793 267.600,240.029 267.600 C 240.582 267.600,241.600 266.582,241.600 266.029 C 241.600 265.793,241.788 265.600,242.018 265.600 C 242.561 265.600,244.400 263.761,244.400 263.218 C 244.400 262.988,244.593 262.800,244.829 262.800 C 245.382 262.800,246.400 261.782,246.400 261.229 C 246.400 260.993,246.593 260.800,246.829 260.800 C 247.295 260.800,248.400 259.815,248.400 259.400 C 248.400 259.066,249.466 258.000,249.800 258.000 C 250.215 258.000,251.200 256.895,251.200 256.429 C 251.200 256.193,251.393 256.000,251.629 256.000 C 252.182 256.000,253.200 254.982,253.200 254.429 C 253.200 254.193,253.393 254.000,253.629 254.000 C 254.095 254.000,255.200 253.015,255.200 252.600 C 255.200 252.266,256.266 251.200,256.600 251.200 C 257.015 251.200,258.000 250.095,258.000 249.629 C 258.000 249.393,258.193 249.200,258.429 249.200 C 258.982 249.200,260.000 248.182,260.000 247.629 C 260.000 247.393,260.188 247.200,260.418 247.200 C 260.961 247.200,262.800 245.361,262.800 244.818 C 262.800 244.588,262.993 244.400,263.229 244.400 C 263.782 244.400,264.800 243.382,264.800 242.829 C 264.800 242.593,264.993 242.400,265.229 242.400 C 265.695 242.400,266.800 241.415,266.800 241.000 C 266.800 240.666,267.866 239.600,268.200 239.600 C 268.615 239.600,269.600 238.495,269.600 238.029 C 269.600 237.793,269.793 237.600,270.029 237.600 C 270.582 237.600,271.600 236.582,271.600 236.029 C 271.600 235.793,271.793 235.600,272.029 235.600 C 272.495 235.600,273.600 234.615,273.600 234.200 C 273.600 233.866,274.666 232.800,275.000 232.800 C 275.415 232.800,276.400 231.695,276.400 231.229 C 276.400 230.993,276.593 230.800,276.829 230.800 C 277.382 230.800,278.400 229.782,278.400 229.229 C 278.400 228.993,278.588 228.800,278.818 228.800 C 279.361 228.800,281.200 226.961,281.200 226.418 C 281.200 226.188,281.393 226.000,281.629 226.000 C 282.182 226.000,283.200 224.982,283.200 224.429 C 283.200 224.193,283.393 224.000,283.629 224.000 C 284.095 224.000,285.200 223.015,285.200 222.600 C 285.200 222.266,286.266 221.200,286.600 221.200 C 287.015 221.200,288.000 220.095,288.000 219.629 C 288.000 219.393,288.193 219.200,288.429 219.200 C 288.982 219.200,290.000 218.182,290.000 217.629 C 290.000 217.393,290.188 217.200,290.418 217.200 C 290.961 217.200,292.800 215.361,292.800 214.818 C 292.800 214.588,292.993 214.400,293.229 214.400 C 293.782 214.400,294.800 213.382,294.800 212.829 C 294.800 212.593,294.993 212.400,295.229 212.400 C 295.782 212.400,296.800 211.382,296.800 210.829 C 296.800 210.593,296.988 210.400,297.218 210.400 C 297.761 210.400,299.600 208.561,299.600 208.018 C 299.600 207.788,299.793 207.600,300.029 207.600 C 300.582 207.600,301.600 206.582,301.600 206.029 C 301.600 205.793,301.793 205.600,302.029 205.600 C 302.582 205.600,303.600 204.582,303.600 204.029 C 303.600 203.793,303.788 203.600,304.018 203.600 C 304.561 203.600,306.400 201.761,306.400 201.218 C 306.400 200.988,306.593 200.800,306.829 200.800 C 307.382 200.800,308.400 199.782,308.400 199.229 C 308.400 198.993,308.588 198.800,308.818 198.800 C 309.361 198.800,311.200 196.961,311.200 196.418 C 311.200 196.188,311.393 196.000,311.629 196.000 C 312.182 196.000,313.200 194.982,313.200 194.429 C 313.200 194.193,313.393 194.000,313.629 194.000 C 314.182 194.000,315.200 192.982,315.200 192.429 C 315.200 192.193,315.388 192.000,315.618 192.000 C 316.161 192.000,318.000 190.161,318.000 189.618 C 318.000 189.388,318.193 189.200,318.429 189.200 C 318.982 189.200,320.000 188.182,320.000 187.629 C 320.000 187.393,320.193 187.200,320.429 187.200 C 320.982 187.200,322.000 186.182,322.000 185.629 C 322.000 185.393,322.188 185.200,322.418 185.200 C 322.961 185.200,324.800 183.361,324.800 182.818 C 324.800 182.588,324.993 182.400,325.229 182.400 C 325.782 182.400,326.800 181.382,326.800 180.829 C 326.800 180.593,326.988 180.400,327.218 180.400 C 327.761 180.400,329.600 178.561,329.600 178.018 C 329.600 177.788,329.793 177.600,330.029 177.600 C 330.582 177.600,331.600 176.582,331.600 176.029 C 331.600 175.793,331.793 175.600,332.029 175.600 C 332.582 175.600,333.600 174.582,333.600 174.029 C 333.600 173.793,333.788 173.600,334.018 173.600 C 334.561 173.600,336.400 171.761,336.400 171.218 C 336.400 170.988,336.593 170.800,336.829 170.800 C 337.382 170.800,338.400 169.782,338.400 169.229 C 338.400 168.993,338.593 168.800,338.829 168.800 C 339.382 168.800,340.400 167.782,340.400 167.229 C 340.400 166.993,340.588 166.800,340.818 166.800 C 341.361 166.800,343.200 164.961,343.200 164.418 C 343.200 164.188,343.393 164.000,343.629 164.000 C 344.182 164.000,345.200 162.982,345.200 162.429 C 345.200 162.193,345.388 162.000,345.618 162.000 C 346.161 162.000,348.000 160.161,348.000 159.618 C 348.000 159.388,348.193 159.200,348.429 159.200 C 348.982 159.200,350.000 158.182,350.000 157.629 C 350.000 157.393,350.193 157.200,350.429 157.200 C 350.982 157.200,352.000 156.182,352.000 155.629 C 352.000 155.393,352.188 155.200,352.418 155.200 C 352.961 155.200,354.800 153.361,354.800 152.818 C 354.800 152.588,354.993 152.400,355.229 152.400 C 355.782 152.400,356.800 151.382,356.800 150.829 C 356.800 150.593,357.070 150.400,357.400 150.400 C 357.773 150.400,358.000 150.778,358.000 151.400 C 358.000 151.950,358.180 152.400,358.400 152.400 C 358.620 152.400,358.800 153.300,358.800 154.400 C 358.800 155.911,358.947 156.400,359.400 156.400 C 359.819 156.400,360.000 156.822,360.000 157.800 C 360.000 158.570,360.180 159.200,360.400 159.200 C 360.620 159.200,360.800 160.100,360.800 161.200 C 360.800 162.711,360.947 163.200,361.400 163.200 C 361.867 163.200,362.000 163.733,362.000 165.600 C 362.000 166.933,362.178 168.000,362.400 168.000 C 362.622 168.000,362.800 169.067,362.800 170.400 C 362.800 171.733,362.978 172.800,363.200 172.800 C 363.429 172.800,363.600 174.004,363.600 175.613 C 363.600 177.744,363.745 178.481,364.200 178.655 C 364.680 178.840,364.800 179.716,364.800 183.043 C 364.800 185.548,364.959 187.200,365.200 187.200 C 365.458 187.200,365.600 191.667,365.600 199.800 C 365.600 207.933,365.458 212.400,365.200 212.400 C 364.955 212.400,364.800 214.333,364.800 217.400 C 364.800 221.578,364.701 222.400,364.200 222.400 C 363.724 222.400,363.600 222.978,363.600 225.200 C 363.600 226.800,363.429 228.000,363.200 228.000 C 362.969 228.000,362.800 229.267,362.800 231.000 C 362.800 232.733,362.631 234.000,362.400 234.000 C 362.180 234.000,362.000 234.810,362.000 235.800 C 362.000 237.133,361.844 237.600,361.400 237.600 C 360.947 237.600,360.800 238.089,360.800 239.600 C 360.800 240.700,360.620 241.600,360.400 241.600 C 360.180 241.600,360.000 242.500,360.000 243.600 C 360.000 245.111,359.853 245.600,359.400 245.600 C 358.981 245.600,358.800 246.022,358.800 247.000 C 358.800 247.770,358.620 248.400,358.400 248.400 C 358.180 248.400,358.000 249.030,358.000 249.800 C 358.000 250.778,357.819 251.200,357.400 251.200 C 356.981 251.200,356.800 251.622,356.800 252.600 C 356.800 253.370,356.620 254.000,356.400 254.000 C 356.180 254.000,356.000 254.720,356.000 255.600 C 356.000 256.480,355.820 257.200,355.600 257.200 C 355.380 257.200,355.200 257.830,355.200 258.600 C 355.200 259.578,355.019 260.000,354.600 260.000 C 354.227 260.000,354.000 260.378,354.000 261.000 C 354.000 261.550,353.820 262.000,353.600 262.000 C 353.380 262.000,353.200 262.630,353.200 263.400 C 353.200 264.378,353.019 264.800,352.600 264.800 C 352.227 264.800,352.000 265.178,352.000 265.800 C 352.000 266.350,351.820 266.800,351.600 266.800 C 351.380 266.800,351.200 267.250,351.200 267.800 C 351.200 268.422,350.973 268.800,350.600 268.800 C 350.227 268.800,350.000 269.178,350.000 269.800 C 350.000 270.350,349.820 270.800,349.600 270.800 C 349.380 270.800,349.200 271.160,349.200 271.600 C 349.200 272.040,349.020 272.400,348.800 272.400 C 348.580 272.400,348.400 272.850,348.400 273.400 C 348.400 274.022,348.173 274.400,347.800 274.400 C 347.427 274.400,347.200 274.778,347.200 275.400 C 347.200 275.950,347.020 276.400,346.800 276.400 C 346.580 276.400,346.400 276.850,346.400 277.400 C 346.400 278.022,346.173 278.400,345.800 278.400 C 345.427 278.400,345.200 278.778,345.200 279.400 C 345.200 279.950,345.020 280.400,344.800 280.400 C 344.580 280.400,344.400 280.850,344.400 281.400 C 344.400 281.950,344.220 282.400,344.000 282.400 C 343.780 282.400,343.600 282.850,343.600 283.400 C 343.600 283.950,343.407 284.400,343.171 284.400 C 342.466 284.400,341.600 285.486,341.600 286.371 C 341.600 286.827,341.407 287.200,341.171 287.200 C 340.466 287.200,339.600 288.286,339.600 289.171 C 339.600 289.641,339.340 290.000,339.000 290.000 C 338.642 290.000,338.400 290.368,338.400 290.912 C 338.400 291.413,338.040 292.083,337.600 292.400 C 337.160 292.717,336.800 293.207,336.800 293.488 C 336.800 293.770,336.530 294.000,336.200 294.000 C 335.860 294.000,335.600 294.359,335.600 294.829 C 335.600 295.714,334.734 296.800,334.029 296.800 C 333.793 296.800,333.600 297.173,333.600 297.629 C 333.600 298.514,332.734 299.600,332.029 299.600 C 331.793 299.600,331.600 299.870,331.600 300.200 C 331.600 300.530,331.420 300.800,331.200 300.800 C 330.980 300.800,330.800 301.160,330.800 301.600 C 330.800 302.040,330.620 302.400,330.400 302.400 C 330.180 302.400,330.000 302.670,330.000 303.000 C 330.000 303.330,329.807 303.600,329.571 303.600 C 329.018 303.600,328.000 304.618,328.000 305.171 C 328.000 305.407,327.730 305.600,327.400 305.600 C 327.062 305.600,326.800 305.958,326.800 306.418 C 326.800 307.269,325.147 309.200,324.418 309.200 C 324.188 309.200,324.000 309.393,324.000 309.629 C 324.000 310.182,322.982 311.200,322.429 311.200 C 322.193 311.200,322.000 311.393,322.000 311.629 C 322.000 312.182,320.982 313.200,320.429 313.200 C 320.193 313.200,320.000 313.388,320.000 313.618 C 320.000 314.161,318.161 316.000,317.618 316.000 C 317.388 316.000,317.200 316.193,317.200 316.429 C 317.200 316.982,316.182 318.000,315.629 318.000 C 315.393 318.000,315.200 318.193,315.200 318.429 C 315.200 318.895,314.215 320.000,313.800 320.000 C 313.466 320.000,312.400 321.066,312.400 321.400 C 312.400 321.815,311.295 322.800,310.829 322.800 C 310.593 322.800,310.400 322.993,310.400 323.229 C 310.400 323.782,309.382 324.800,308.829 324.800 C 308.593 324.800,308.400 324.993,308.400 325.229 C 308.400 325.876,307.342 326.800,306.600 326.800 C 305.858 326.800,304.800 327.724,304.800 328.371 C 304.800 328.607,304.607 328.800,304.371 328.800 C 303.818 328.800,302.800 329.818,302.800 330.371 C 302.800 330.607,302.427 330.800,301.971 330.800 C 301.086 330.800,300.000 331.666,300.000 332.371 C 300.000 332.607,299.730 332.800,299.400 332.800 C 299.070 332.800,298.800 332.980,298.800 333.200 C 298.800 333.420,298.427 333.600,297.971 333.600 C 297.086 333.600,296.000 334.466,296.000 335.171 C 296.000 335.407,295.730 335.600,295.400 335.600 C 295.070 335.600,294.800 335.780,294.800 336.000 C 294.800 336.220,294.440 336.400,294.000 336.400 C 293.556 336.400,293.200 336.667,293.200 337.000 C 293.200 337.330,292.930 337.600,292.600 337.600 C 292.270 337.600,292.000 337.780,292.000 338.000 C 292.000 338.220,291.627 338.400,291.171 338.400 C 290.286 338.400,289.200 339.266,289.200 339.971 C 289.200 340.207,288.827 340.400,288.371 340.400 C 287.486 340.400,286.400 341.266,286.400 341.971 C 286.400 342.207,285.950 342.400,285.400 342.400 C 284.850 342.400,284.400 342.580,284.400 342.800 C 284.400 343.020,283.950 343.200,283.400 343.200 C 282.778 343.200,282.400 343.427,282.400 343.800 C 282.400 344.158,282.032 344.400,281.488 344.400 C 280.987 344.400,280.317 344.760,280.000 345.200 C 279.683 345.640,279.013 346.000,278.512 346.000 C 277.968 346.000,277.600 346.242,277.600 346.600 C 277.600 346.973,277.222 347.200,276.600 347.200 C 276.050 347.200,275.600 347.380,275.600 347.600 C 275.600 347.820,275.150 348.000,274.600 348.000 C 273.978 348.000,273.600 348.227,273.600 348.600 C 273.600 348.973,273.222 349.200,272.600 349.200 C 272.050 349.200,271.600 349.380,271.600 349.600 C 271.600 349.820,271.150 350.000,270.600 350.000 C 269.978 350.000,269.600 350.227,269.600 350.600 C 269.600 350.933,269.244 351.200,268.800 351.200 C 268.360 351.200,268.000 351.380,268.000 351.600 C 268.000 351.820,267.280 352.000,266.400 352.000 C 265.520 352.000,264.800 352.180,264.800 352.400 C 264.800 352.620,264.440 352.800,264.000 352.800 C 263.556 352.800,263.200 353.067,263.200 353.400 C 263.200 353.833,262.756 354.000,261.600 354.000 C 260.720 354.000,260.000 354.180,260.000 354.400 C 260.000 354.620,259.550 354.800,259.000 354.800 C 258.378 354.800,258.000 355.027,258.000 355.400 C 258.000 355.819,257.578 356.000,256.600 356.000 C 255.830 356.000,255.200 356.180,255.200 356.400 C 255.200 356.620,254.570 356.800,253.800 356.800 C 253.030 356.800,252.400 356.980,252.400 357.200 C 252.400 357.420,251.770 357.600,251.000 357.600 C 250.022 357.600,249.600 357.781,249.600 358.200 C 249.600 358.633,249.156 358.800,248.000 358.800 C 247.120 358.800,246.400 358.980,246.400 359.200 C 246.400 359.420,245.590 359.600,244.600 359.600 C 243.267 359.600,242.800 359.756,242.800 360.200 C 242.800 360.633,242.356 360.800,241.200 360.800 C 240.320 360.800,239.600 360.980,239.600 361.200 C 239.600 361.422,238.533 361.600,237.200 361.600 C 235.333 361.600,234.800 361.733,234.800 362.200 C 234.800 362.644,234.333 362.800,233.000 362.800 C 232.010 362.800,231.200 362.980,231.200 363.200 C 231.200 363.431,229.933 363.600,228.200 363.600 C 226.467 363.600,225.200 363.769,225.200 364.000 C 225.200 364.239,223.667 364.400,221.400 364.400 C 218.289 364.400,217.600 364.509,217.600 365.000 C 217.600 365.512,216.511 365.600,210.200 365.600 C 205.533 365.600,202.800 365.748,202.800 366.000 C 202.800 366.235,201.400 366.400,199.400 366.400 C 197.400 366.400,196.000 366.235,196.000 366.000 C 196.000 365.748,193.333 365.600,188.800 365.600 C 182.667 365.600,181.600 365.511,181.600 365.000 C 181.600 364.514,180.956 364.400,178.200 364.400 C 176.200 364.400,174.800 364.235,174.800 364.000 C 174.800 363.771,173.600 363.600,172.000 363.600 C 170.400 363.600,169.200 363.429,169.200 363.200 C 169.200 362.980,168.300 362.800,167.200 362.800 C 165.689 362.800,165.200 362.653,165.200 362.200 C 165.200 361.733,164.667 361.600,162.800 361.600 C 161.467 361.600,160.400 361.422,160.400 361.200 C 160.400 360.980,159.500 360.800,158.400 360.800 C 156.889 360.800,156.400 360.653,156.400 360.200 C 156.400 359.781,155.978 359.600,155.000 359.600 C 154.230 359.600,153.600 359.420,153.600 359.200 C 153.600 358.980,152.989 358.800,152.243 358.800 C 151.405 358.800,150.797 358.570,150.655 358.200 C 150.511 357.823,149.899 357.600,149.013 357.600 C 148.236 357.600,147.600 357.420,147.600 357.200 C 147.600 356.980,146.970 356.800,146.200 356.800 C 145.430 356.800,144.800 356.620,144.800 356.400 C 144.800 356.180,144.170 356.000,143.400 356.000 C 142.422 356.000,142.000 355.819,142.000 355.400 C 142.000 354.967,141.556 354.800,140.400 354.800 C 139.520 354.800,138.800 354.620,138.800 354.400 C 138.800 354.180,138.440 354.000,138.000 354.000 C 137.556 354.000,137.200 353.733,137.200 353.400 C 137.200 353.027,136.822 352.800,136.200 352.800 C 135.650 352.800,135.200 352.620,135.200 352.400 C 135.200 352.180,134.570 352.000,133.800 352.000 C 133.030 352.000,132.400 351.820,132.400 351.600 C 132.400 351.380,131.950 351.200,131.400 351.200 C 130.778 351.200,130.400 350.973,130.400 350.600 C 130.400 350.227,130.022 350.000,129.400 350.000 C 128.850 350.000,128.400 349.820,128.400 349.600 C 128.400 349.380,127.950 349.200,127.400 349.200 C 126.778 349.200,126.400 348.973,126.400 348.600 C 126.400 348.227,126.022 348.000,125.400 348.000 C 124.850 348.000,124.400 347.820,124.400 347.600 C 124.400 347.380,123.950 347.200,123.400 347.200 C 122.778 347.200,122.400 346.973,122.400 346.600 C 122.400 346.242,122.032 346.000,121.488 346.000 C 120.987 346.000,120.317 345.640,120.000 345.200 C 119.683 344.760,119.013 344.400,118.512 344.400 C 117.968 344.400,117.600 344.158,117.600 343.800 C 117.600 343.427,117.222 343.200,116.600 343.200 C 116.050 343.200,115.600 343.020,115.600 342.800 C 115.600 342.580,115.240 342.400,114.800 342.400 C 114.356 342.400,114.000 342.133,114.000 341.800 C 114.000 341.470,113.730 341.200,113.400 341.200 C 113.070 341.200,112.800 341.020,112.800 340.800 C 112.800 340.580,112.350 340.400,111.800 340.400 C 111.250 340.400,110.800 340.207,110.800 339.971 C 110.800 339.324,109.742 338.400,109.000 338.400 C 108.258 338.400,107.200 337.476,107.200 336.829 C 107.200 336.593,106.750 336.400,106.200 336.400 C 105.650 336.400,105.200 336.220,105.200 336.000 C 105.200 335.780,104.930 335.600,104.600 335.600 C 104.270 335.600,104.000 335.330,104.000 335.000 C 104.000 334.662,103.642 334.400,103.182 334.400 C 102.331 334.400,100.400 332.747,100.400 332.018 C 100.400 331.788,99.950 331.600,99.400 331.600 C 98.850 331.600,98.400 331.420,98.400 331.200 C 98.400 330.980,98.130 330.800,97.800 330.800 C 97.470 330.800,97.200 330.607,97.200 330.371 C 97.200 329.818,96.182 328.800,95.629 328.800 C 95.393 328.800,95.200 328.607,95.200 328.371 C 95.200 327.724,94.142 326.800,93.400 326.800 C 92.658 326.800,91.600 325.876,91.600 325.229 C 91.600 324.993,91.407 324.800,91.171 324.800 C 90.705 324.800,89.600 323.815,89.600 323.400 C 89.600 322.985,88.495 322.000,88.029 322.000 C 87.793 322.000,87.600 321.807,87.600 321.571 C 87.600 321.105,86.615 320.000,86.200 320.000 C 85.785 320.000,84.800 318.895,84.800 318.429 C 84.800 318.193,84.607 318.000,84.371 318.000 C 83.905 318.000,82.800 317.015,82.800 316.600 C 82.800 316.266,81.734 315.200,81.400 315.200 C 80.985 315.200,80.000 314.095,80.000 313.629 C 80.000 313.393,79.807 313.200,79.571 313.200 C 79.018 313.200,78.000 312.182,78.000 311.629 C 78.000 311.393,77.807 311.200,77.571 311.200 C 77.105 311.200,76.000 310.215,76.000 309.800 C 76.000 309.466,74.934 308.400,74.600 308.400 C 74.043 308.400,73.200 307.213,73.200 306.429 C 73.200 305.959,72.940 305.600,72.600 305.600 C 72.270 305.600,72.000 305.405,72.000 305.167 C 72.000 304.928,71.370 304.121,70.600 303.374 C 69.830 302.626,69.200 301.741,69.200 301.407 C 69.200 301.073,69.020 300.800,68.800 300.800 C 68.580 300.800,68.400 300.530,68.400 300.200 C 68.400 299.870,68.207 299.600,67.971 299.600 C 67.266 299.600,66.400 298.514,66.400 297.629 C 66.400 297.173,66.207 296.800,65.971 296.800 C 65.418 296.800,64.400 295.782,64.400 295.229 C 64.400 294.993,64.220 294.800,64.000 294.800 C 63.780 294.800,63.600 294.350,63.600 293.800 C 63.600 293.250,63.407 292.800,63.171 292.800 C 62.466 292.800,61.600 291.714,61.600 290.829 C 61.600 290.359,61.340 290.000,61.000 290.000 C 60.660 290.000,60.400 289.641,60.400 289.171 C 60.400 288.286,59.534 287.200,58.829 287.200 C 58.593 287.200,58.400 286.790,58.400 286.288 C 58.400 285.787,58.040 285.117,57.600 284.800 C 57.160 284.483,56.800 283.813,56.800 283.312 C 56.800 282.768,56.558 282.400,56.200 282.400 C 55.827 282.400,55.600 282.022,55.600 281.400 C 55.600 280.850,55.420 280.400,55.200 280.400 C 54.980 280.400,54.800 279.950,54.800 279.400 C 54.800 278.778,54.573 278.400,54.200 278.400 C 53.827 278.400,53.600 278.022,53.600 277.400 C 53.600 276.850,53.420 276.400,53.200 276.400 C 52.980 276.400,52.800 275.950,52.800 275.400 C 52.800 274.850,52.620 274.400,52.400 274.400 C 52.180 274.400,52.000 274.034,52.000 273.587 C 52.000 273.141,51.730 272.671,51.400 272.545 C 51.070 272.418,50.800 271.974,50.800 271.557 C 50.800 271.141,50.620 270.800,50.400 270.800 C 50.180 270.800,50.000 270.350,50.000 269.800 C 50.000 269.178,49.773 268.800,49.400 268.800 C 49.027 268.800,48.800 268.422,48.800 267.800 C 48.800 267.250,48.620 266.800,48.400 266.800 C 48.180 266.800,48.000 266.427,48.000 265.971 C 48.000 265.086,48.866 264.000,49.571 264.000 C 49.807 264.000,50.000 263.807,50.000 263.571 C 50.000 263.018,51.018 262.000,51.571 262.000 C 51.807 262.000,52.000 261.770,52.000 261.488 C 52.000 261.207,52.360 260.717,52.800 260.400 C 53.240 260.083,53.600 259.593,53.600 259.312 C 53.600 259.030,53.789 258.800,54.019 258.800 C 54.565 258.800,58.400 254.965,58.400 254.419 C 58.400 254.189,58.593 254.000,58.829 254.000 C 59.382 254.000,60.400 252.982,60.400 252.429 C 60.400 252.193,60.589 252.000,60.819 252.000 C 61.365 252.000,65.200 248.165,65.200 247.619 C 65.200 247.389,65.430 247.200,65.712 247.200 C 65.993 247.200,66.483 246.840,66.800 246.400 C 67.117 245.960,67.607 245.600,67.888 245.600 C 68.170 245.600,68.400 245.407,68.400 245.171 C 68.400 244.618,69.418 243.600,69.971 243.600 C 70.207 243.600,70.400 243.370,70.400 243.088 C 70.400 242.807,70.760 242.317,71.200 242.000 C 71.640 241.683,72.000 241.193,72.000 240.912 C 72.000 240.630,72.230 240.400,72.512 240.400 C 72.793 240.400,73.283 240.040,73.600 239.600 C 73.917 239.160,74.407 238.800,74.688 238.800 C 74.970 238.800,75.200 238.570,75.200 238.288 C 75.200 238.007,75.560 237.517,76.000 237.200 C 76.440 236.883,76.800 236.393,76.800 236.112 C 76.800 235.830,76.993 235.600,77.229 235.600 C 77.782 235.600,78.800 234.582,78.800 234.029 C 78.800 233.793,79.030 233.600,79.312 233.600 C 79.593 233.600,80.083 233.240,80.400 232.800 C 80.717 232.360,81.207 232.000,81.488 232.000 C 81.770 232.000,82.000 231.770,82.000 231.488 C 82.000 231.207,82.360 230.717,82.800 230.400 C 83.240 230.083,83.600 229.593,83.600 229.312 C 83.600 229.030,83.830 228.800,84.112 228.800 C 84.393 228.800,84.883 228.440,85.200 228.000 C 85.517 227.560,86.007 227.200,86.288 227.200 C 86.570 227.200,86.800 227.007,86.800 226.771 C 86.800 226.218,87.818 225.200,88.371 225.200 C 88.607 225.200,88.800 224.970,88.800 224.688 C 88.800 224.407,89.160 223.917,89.600 223.600 C 90.040 223.283,90.400 222.793,90.400 222.512 C 90.400 222.230,90.630 222.000,90.912 222.000 C 91.193 222.000,91.683 221.640,92.000 221.200 C 92.317 220.760,92.807 220.400,93.088 220.400 C 93.370 220.400,93.600 220.170,93.600 219.888 C 93.600 219.607,93.960 219.117,94.400 218.800 C 94.840 218.483,95.200 217.993,95.200 217.712 C 95.200 217.430,95.430 217.200,95.712 217.200 C 95.993 217.200,96.483 216.840,96.800 216.400 C 97.117 215.960,97.607 215.600,97.888 215.600 C 98.170 215.600,98.400 215.407,98.400 215.171 C 98.400 214.618,99.418 213.600,99.971 213.600 C 100.207 213.600,100.400 213.370,100.400 213.088 C 100.400 212.807,100.760 212.317,101.200 212.000 C 101.640 211.683,102.000 211.193,102.000 210.912 C 102.000 210.630,102.230 210.400,102.512 210.400 C 102.793 210.400,103.283 210.040,103.600 209.600 C 103.917 209.160,104.407 208.800,104.688 208.800 C 104.970 208.800,105.200 208.607,105.200 208.371 C 105.200 207.818,106.218 206.800,106.771 206.800 C 107.007 206.800,107.200 206.570,107.200 206.288 C 107.200 206.007,107.560 205.517,108.000 205.200 C 108.440 204.883,108.800 204.393,108.800 204.112 C 108.800 203.830,109.030 203.600,109.312 203.600 C 109.593 203.600,110.083 203.240,110.400 202.800 C 110.717 202.360,111.207 202.000,111.488 202.000 C 111.770 202.000,112.000 201.807,112.000 201.571 C 112.000 201.018,113.018 200.000,113.571 200.000 C 113.807 200.000,114.000 199.812,114.000 199.582 C 114.000 199.352,114.442 198.722,114.982 198.182 C 115.522 197.642,116.152 197.200,116.382 197.200 C 116.612 197.200,116.800 197.007,116.800 196.771 C 116.800 196.218,117.818 195.200,118.371 195.200 C 118.607 195.200,118.800 194.970,118.800 194.688 C 118.800 194.407,119.160 193.917,119.600 193.600 C 120.040 193.283,120.400 192.793,120.400 192.512 C 120.400 192.230,120.630 192.000,120.912 192.000 C 121.193 192.000,121.683 191.640,122.000 191.200 C 122.317 190.760,122.807 190.400,123.088 190.400 C 123.370 190.400,123.600 190.207,123.600 189.971 C 123.600 189.418,124.618 188.400,125.171 188.400 C 125.407 188.400,125.600 188.170,125.600 187.888 C 125.600 187.607,125.960 187.117,126.400 186.800 C 126.840 186.483,127.200 185.993,127.200 185.712 C 127.200 185.430,127.430 185.200,127.712 185.200 C 127.993 185.200,128.483 184.840,128.800 184.400 C 129.117 183.960,129.607 183.600,129.888 183.600 C 130.170 183.600,130.400 183.407,130.400 183.171 C 130.400 182.618,131.418 181.600,131.971 181.600 C 132.207 181.600,132.400 181.412,132.400 181.182 C 132.400 180.952,132.842 180.322,133.382 179.782 C 133.922 179.242,134.552 178.800,134.782 178.800 C 135.012 178.800,135.200 178.607,135.200 178.371 C 135.200 177.818,136.218 176.800,136.771 176.800 C 137.007 176.800,137.200 176.570,137.200 176.288 C 137.200 176.007,137.560 175.517,138.000 175.200 C 138.440 174.883,138.800 174.393,138.800 174.112 C 138.800 173.830,139.030 173.600,139.312 173.600 C 139.593 173.600,140.083 173.240,140.400 172.800 C 140.717 172.360,141.207 172.000,141.488 172.000 C 141.770 172.000,142.000 171.807,142.000 171.571 C 142.000 171.018,143.018 170.000,143.571 170.000 C 143.807 170.000,144.000 169.770,144.000 169.488 C 144.000 169.207,144.360 168.717,144.800 168.400 C 145.240 168.083,145.600 167.593,145.600 167.312 C 145.600 167.030,145.830 166.800,146.112 166.800 C 146.393 166.800,146.883 166.440,147.200 166.000 C 147.517 165.560,148.007 165.200,148.288 165.200 C 148.570 165.200,148.800 165.007,148.800 164.771 C 148.800 164.218,149.818 163.200,150.371 163.200 C 150.607 163.200,150.800 163.012,150.800 162.782 C 150.800 162.239,152.639 160.400,153.182 160.400 C 153.412 160.400,153.600 160.207,153.600 159.971 C 153.600 159.418,154.618 158.400,155.171 158.400 C 155.407 158.400,155.600 158.170,155.600 157.888 C 155.600 157.607,155.960 157.117,156.400 156.800 C 156.840 156.483,157.200 155.993,157.200 155.712 C 157.200 155.430,157.430 155.200,157.712 155.200 C 157.993 155.200,158.483 154.840,158.800 154.400 C 159.117 153.960,159.607 153.600,159.888 153.600 C 160.170 153.600,160.400 153.407,160.400 153.171 C 160.400 152.618,161.418 151.600,161.971 151.600 C 162.207 151.600,162.400 151.412,162.400 151.182 C 162.400 150.639,164.239 148.800,164.782 148.800 C 165.012 148.800,165.200 148.607,165.200 148.371 C 165.200 147.818,166.218 146.800,166.771 146.800 C 167.007 146.800,167.200 146.607,167.200 146.371 C 167.200 145.818,168.218 144.800,168.771 144.800 C 169.007 144.800,169.200 144.612,169.200 144.382 C 169.200 143.839,171.039 142.000,171.582 142.000 C 171.812 142.000,172.000 141.807,172.000 141.571 C 172.000 141.018,173.018 140.000,173.571 140.000 C 173.807 140.000,174.000 139.770,174.000 139.488 C 174.000 139.207,174.360 138.717,174.800 138.400 C 175.240 138.083,175.600 137.593,175.600 137.312 C 175.600 137.030,175.830 136.800,176.112 136.800 C 176.393 136.800,176.883 136.440,177.200 136.000 C 177.517 135.560,178.007 135.200,178.288 135.200 C 178.570 135.200,178.800 135.007,178.800 134.771 C 178.800 134.218,179.818 133.200,180.371 133.200 C 180.607 133.200,180.800 133.012,180.800 132.782 C 180.800 132.552,181.250 131.914,181.800 131.364 L 182.800 130.364 182.800 153.582 L 182.800 176.800 200.200 176.800 L 217.600 176.800 217.600 126.000 L 217.600 75.200 166.600 75.200 L 115.600 75.200 115.600 92.600 L 115.600 110.000 134.200 110.000 C 146.333 110.000,152.800 110.139,152.800 110.400 C 152.800 110.620,152.530 110.800,152.200 110.800 C 151.870 110.800,151.600 110.993,151.600 111.229 C 151.600 111.782,150.582 112.800,150.029 112.800 C 149.793 112.800,149.600 112.993,149.600 113.229 C 149.600 113.695,148.615 114.800,148.200 114.800 C 147.866 114.800,146.800 115.866,146.800 116.200 C 146.800 116.615,145.695 117.600,145.229 117.600 C 144.993 117.600,144.800 117.793,144.800 118.029 C 144.800 118.495,143.815 119.600,143.400 119.600 C 142.985 119.600,142.000 120.705,142.000 121.171 C 142.000 121.407,141.807 121.600,141.571 121.600 C 141.105 121.600,140.000 122.585,140.000 123.000 C 140.000 123.415,138.895 124.400,138.429 124.400 C 138.193 124.400,138.000 124.593,138.000 124.829 C 138.000 125.295,137.015 126.400,136.600 126.400 C 136.266 126.400,135.200 127.466,135.200 127.800 C 135.200 128.215,134.095 129.200,133.629 129.200 C 133.393 129.200,133.200 129.393,133.200 129.629 C 133.200 130.182,132.182 131.200,131.629 131.200 C 131.393 131.200,131.200 131.393,131.200 131.629 C 131.200 132.095,130.215 133.200,129.800 133.200 C 129.466 133.200,128.400 134.266,128.400 134.600 C 128.400 135.015,127.295 136.000,126.829 136.000 C 126.593 136.000,126.400 136.193,126.400 136.429 C 126.400 136.895,125.415 138.000,125.000 138.000 C 124.585 138.000,123.600 139.105,123.600 139.571 C 123.600 139.807,123.407 140.000,123.171 140.000 C 122.705 140.000,121.600 140.985,121.600 141.400 C 121.600 141.815,120.495 142.800,120.029 142.800 C 119.793 142.800,119.600 142.993,119.600 143.229 C 119.600 143.695,118.615 144.800,118.200 144.800 C 117.785 144.800,116.800 145.905,116.800 146.371 C 116.800 146.607,116.607 146.800,116.371 146.800 C 115.905 146.800,114.800 147.785,114.800 148.200 C 114.800 148.615,113.695 149.600,113.229 149.600 C 112.993 149.600,112.800 149.793,112.800 150.029 C 112.800 150.495,111.815 151.600,111.400 151.600 C 111.066 151.600,110.000 152.666,110.000 153.000 C 110.000 153.415,108.895 154.400,108.429 154.400 C 108.193 154.400,108.000 154.593,108.000 154.829 C 108.000 155.295,107.015 156.400,106.600 156.400 C 106.185 156.400,105.200 157.505,105.200 157.971 C 105.200 158.207,105.007 158.400,104.771 158.400 C 104.305 158.400,103.200 159.385,103.200 159.800 C 103.200 160.215,102.095 161.200,101.629 161.200 C 101.393 161.200,101.200 161.393,101.200 161.629 C 101.200 162.095,100.215 163.200,99.800 163.200 C 99.385 163.200,98.400 164.305,98.400 164.771 C 98.400 165.007,98.207 165.200,97.971 165.200 C 97.505 165.200,96.400 166.185,96.400 166.600 C 96.400 166.934,95.334 168.000,95.000 168.000 C 94.585 168.000,93.600 169.105,93.600 169.571 C 93.600 169.807,93.407 170.000,93.171 170.000 C 92.705 170.000,91.600 170.985,91.600 171.400 C 91.600 171.815,90.495 172.800,90.029 172.800 C 89.793 172.800,89.600 172.993,89.600 173.229 C 89.600 173.695,88.615 174.800,88.200 174.800 C 87.785 174.800,86.800 175.905,86.800 176.371 C 86.800 176.607,86.607 176.800,86.371 176.800 C 85.905 176.800,84.800 177.785,84.800 178.200 C 84.800 178.615,83.695 179.600,83.229 179.600 C 82.993 179.600,82.800 179.793,82.800 180.029 C 82.800 180.495,81.815 181.600,81.400 181.600 C 80.985 181.600,80.000 182.705,80.000 183.171 C 80.000 183.407,79.807 183.600,79.571 183.600 C 79.105 183.600,78.000 184.585,78.000 185.000 C 78.000 185.141,77.743 185.514,77.429 185.829 C 77.114 186.143,76.741 186.400,76.600 186.400 C 76.185 186.400,75.200 187.505,75.200 187.971 C 75.200 188.207,75.007 188.400,74.771 188.400 C 74.305 188.400,73.200 189.385,73.200 189.800 C 73.200 190.215,72.095 191.200,71.629 191.200 C 71.393 191.200,71.200 191.393,71.200 191.629 C 71.200 192.095,70.215 193.200,69.800 193.200 C 69.385 193.200,68.400 194.305,68.400 194.771 C 68.400 195.007,68.207 195.200,67.971 195.200 C 67.505 195.200,66.400 196.185,66.400 196.600 C 66.400 197.015,65.295 198.000,64.829 198.000 C 64.593 198.000,64.400 198.193,64.400 198.429 C 64.400 198.895,63.415 200.000,63.000 200.000 C 62.585 200.000,61.600 201.105,61.600 201.571 C 61.600 201.807,61.407 202.000,61.171 202.000 C 60.705 202.000,59.600 202.985,59.600 203.400 C 59.600 203.541,59.343 203.914,59.029 204.229 C 58.714 204.543,58.341 204.800,58.200 204.800 C 57.785 204.800,56.800 205.905,56.800 206.371 C 56.800 206.607,56.607 206.800,56.371 206.800 C 55.905 206.800,54.800 207.785,54.800 208.200 C 54.800 208.615,53.695 209.600,53.229 209.600 C 52.993 209.600,52.800 209.793,52.800 210.029 C 52.800 210.495,51.815 211.600,51.400 211.600 C 50.985 211.600,50.000 212.705,50.000 213.171 C 50.000 213.407,49.807 213.600,49.571 213.600 C 49.105 213.600,48.000 214.585,48.000 215.000 C 48.000 215.415,46.895 216.400,46.429 216.400 C 46.193 216.400,46.000 216.593,46.000 216.829 C 46.000 217.295,45.015 218.400,44.600 218.400 C 44.185 218.400,43.200 219.505,43.200 219.971 C 43.200 220.207,43.007 220.400,42.771 220.400 C 42.305 220.400,41.200 221.385,41.200 221.800 C 41.200 222.134,40.134 223.200,39.800 223.200 C 39.385 223.200,38.400 224.305,38.400 224.771 C 38.400 225.007,38.130 225.200,37.800 225.200 C 37.470 225.200,37.200 225.380,37.200 225.600 C 37.200 225.820,37.020 226.000,36.800 226.000 C 36.578 226.000,36.400 224.933,36.400 223.600 C 36.400 221.733,36.267 221.200,35.800 221.200 C 35.303 221.200,35.200 220.444,35.200 216.800 C 35.200 214.133,35.042 212.400,34.800 212.400 C 34.542 212.400,34.400 207.933,34.400 199.800 C 34.400 191.667,34.542 187.200,34.800 187.200 C 35.041 187.200,35.200 185.533,35.200 183.000 C 35.200 179.533,35.305 178.800,35.800 178.800 C 36.280 178.800,36.400 178.200,36.400 175.800 C 36.400 174.067,36.569 172.800,36.800 172.800 C 37.031 172.800,37.200 171.533,37.200 169.800 C 37.200 167.400,37.320 166.800,37.800 166.800 C 38.244 166.800,38.400 166.333,38.400 165.000 C 38.400 164.010,38.580 163.200,38.800 163.200 C 39.020 163.200,39.200 162.300,39.200 161.200 C 39.200 160.100,39.380 159.200,39.600 159.200 C 39.820 159.200,40.000 158.300,40.000 157.200 C 40.000 155.689,40.147 155.200,40.600 155.200 C 41.019 155.200,41.200 154.778,41.200 153.800 C 41.200 153.030,41.380 152.400,41.600 152.400 C 41.820 152.400,42.000 151.770,42.000 151.000 C 42.000 150.022,42.181 149.600,42.600 149.600 C 43.019 149.600,43.200 149.178,43.200 148.200 C 43.200 147.430,43.380 146.800,43.600 146.800 C 43.820 146.800,44.000 146.080,44.000 145.200 C 44.000 144.044,44.167 143.600,44.600 143.600 C 45.019 143.600,45.200 143.178,45.200 142.200 C 45.200 141.430,45.380 140.800,45.600 140.800 C 45.820 140.800,46.000 140.350,46.000 139.800 C 46.000 139.250,46.180 138.800,46.400 138.800 C 46.620 138.800,46.800 138.170,46.800 137.400 C 46.800 136.422,46.981 136.000,47.400 136.000 C 47.773 136.000,48.000 135.622,48.000 135.000 C 48.000 134.450,48.180 134.000,48.400 134.000 C 48.620 134.000,48.800 133.550,48.800 133.000 C 48.800 132.378,49.027 132.000,49.400 132.000 C 49.733 132.000,50.000 131.644,50.000 131.200 C 50.000 130.760,50.180 130.400,50.400 130.400 C 50.620 130.400,50.800 129.950,50.800 129.400 C 50.800 128.778,51.027 128.400,51.400 128.400 C 51.773 128.400,52.000 128.022,52.000 127.400 C 52.000 126.850,52.180 126.400,52.400 126.400 C 52.620 126.400,52.800 125.950,52.800 125.400 C 52.800 124.850,52.980 124.400,53.200 124.400 C 53.420 124.400,53.600 123.950,53.600 123.400 C 53.600 122.778,53.827 122.400,54.200 122.400 C 54.573 122.400,54.800 122.022,54.800 121.400 C 54.800 120.850,54.980 120.400,55.200 120.400 C 55.420 120.400,55.600 119.950,55.600 119.400 C 55.600 118.778,55.827 118.400,56.200 118.400 C 56.533 118.400,56.800 118.044,56.800 117.600 C 56.800 117.160,56.980 116.800,57.200 116.800 C 57.420 116.800,57.600 116.530,57.600 116.200 C 57.600 115.870,57.780 115.600,58.000 115.600 C 58.220 115.600,58.400 115.150,58.400 114.600 C 58.400 114.050,58.593 113.600,58.829 113.600 C 59.534 113.600,60.400 112.514,60.400 111.629 C 60.400 111.159,60.660 110.800,61.000 110.800 C 61.340 110.800,61.600 110.441,61.600 109.971 C 61.600 109.086,62.466 108.000,63.171 108.000 C 63.407 108.000,63.600 107.590,63.600 107.088 C 63.600 106.587,63.960 105.917,64.400 105.600 C 64.840 105.283,65.200 104.793,65.200 104.512 C 65.200 104.230,65.470 104.000,65.800 104.000 C 66.140 104.000,66.400 103.641,66.400 103.171 C 66.400 102.286,67.266 101.200,67.971 101.200 C 68.207 101.200,68.400 100.930,68.400 100.600 C 68.400 100.270,68.580 100.000,68.800 100.000 C 69.020 100.000,69.200 99.640,69.200 99.200 C 69.200 98.756,69.467 98.400,69.800 98.400 C 70.130 98.400,70.400 98.170,70.400 97.888 C 70.400 97.607,70.760 97.117,71.200 96.800 C 71.640 96.483,72.000 95.993,72.000 95.712 C 72.000 95.430,72.270 95.200,72.600 95.200 C 72.933 95.200,73.200 94.844,73.200 94.400 C 73.200 93.960,73.380 93.600,73.600 93.600 C 73.820 93.600,74.000 93.330,74.000 93.000 C 74.000 92.670,74.193 92.400,74.429 92.400 C 74.895 92.400,76.000 91.415,76.000 91.000 C 76.000 90.585,77.105 89.600,77.571 89.600 C 77.807 89.600,78.000 89.407,78.000 89.171 C 78.000 88.705,78.985 87.600,79.400 87.600 C 79.815 87.600,80.800 86.495,80.800 86.029 C 80.800 85.793,80.993 85.600,81.229 85.600 C 81.695 85.600,82.800 84.615,82.800 84.200 C 82.800 83.866,83.866 82.800,84.200 82.800 C 84.615 82.800,85.600 81.695,85.600 81.229 C 85.600 80.993,85.793 80.800,86.029 80.800 C 86.582 80.800,87.600 79.782,87.600 79.229 C 87.600 78.993,87.793 78.800,88.029 78.800 C 88.495 78.800,89.600 77.815,89.600 77.400 C 89.600 77.066,90.666 76.000,91.000 76.000 C 91.415 76.000,92.400 74.895,92.400 74.429 C 92.400 74.193,92.773 74.000,93.229 74.000 C 94.114 74.000,95.200 73.134,95.200 72.429 C 95.200 72.193,95.393 72.000,95.629 72.000 C 96.182 72.000,97.200 70.982,97.200 70.429 C 97.200 70.193,97.470 70.000,97.800 70.000 C 98.130 70.000,98.400 69.820,98.400 69.600 C 98.400 69.380,98.773 69.200,99.229 69.200 C 100.013 69.200,101.200 68.357,101.200 67.800 C 101.200 67.243,102.387 66.400,103.171 66.400 C 103.641 66.400,104.000 66.140,104.000 65.800 C 104.000 65.470,104.270 65.200,104.600 65.200 C 104.930 65.200,105.200 65.020,105.200 64.800 C 105.200 64.580,105.573 64.400,106.029 64.400 C 106.914 64.400,108.000 63.534,108.000 62.829 C 108.000 62.593,108.373 62.400,108.829 62.400 C 109.714 62.400,110.800 61.534,110.800 60.829 C 110.800 60.593,111.250 60.400,111.800 60.400 C 112.350 60.400,112.800 60.220,112.800 60.000 C 112.800 59.780,113.070 59.600,113.400 59.600 C 113.730 59.600,114.000 59.330,114.000 59.000 C 114.000 58.667,114.356 58.400,114.800 58.400 C 115.240 58.400,115.600 58.220,115.600 58.000 C 115.600 57.780,116.050 57.600,116.600 57.600 C 117.150 57.600,117.600 57.420,117.600 57.200 C 117.600 56.980,118.050 56.800,118.600 56.800 C 119.150 56.800,119.600 56.607,119.600 56.371 C 119.600 55.666,120.686 54.800,121.571 54.800 C 122.041 54.800,122.400 54.540,122.400 54.200 C 122.400 53.827,122.778 53.600,123.400 53.600 C 123.950 53.600,124.400 53.420,124.400 53.200 C 124.400 52.980,124.850 52.800,125.400 52.800 C 126.022 52.800,126.400 52.573,126.400 52.200 C 126.400 51.827,126.778 51.600,127.400 51.600 C 127.950 51.600,128.400 51.420,128.400 51.200 C 128.400 50.980,128.850 50.800,129.400 50.800 C 129.950 50.800,130.400 50.620,130.400 50.400 C 130.400 50.180,130.766 50.000,131.213 50.000 C 131.659 50.000,132.129 49.730,132.255 49.400 C 132.397 49.030,133.005 48.800,133.843 48.800 C 134.589 48.800,135.200 48.620,135.200 48.400 C 135.200 48.180,135.650 48.000,136.200 48.000 C 136.822 48.000,137.200 47.773,137.200 47.400 C 137.200 47.067,137.556 46.800,138.000 46.800 C 138.440 46.800,138.800 46.620,138.800 46.400 C 138.800 46.180,139.520 46.000,140.400 46.000 C 141.280 46.000,142.000 45.820,142.000 45.600 C 142.000 45.380,142.630 45.200,143.400 45.200 C 144.378 45.200,144.800 45.019,144.800 44.600 C 144.800 44.181,145.222 44.000,146.200 44.000 C 146.970 44.000,147.600 43.820,147.600 43.600 C 147.600 43.380,148.320 43.200,149.200 43.200 C 150.356 43.200,150.800 43.033,150.800 42.600 C 150.800 42.181,151.222 42.000,152.200 42.000 C 152.970 42.000,153.600 41.820,153.600 41.600 C 153.600 41.380,154.230 41.200,155.000 41.200 C 155.978 41.200,156.400 41.019,156.400 40.600 C 156.400 40.147,156.889 40.000,158.400 40.000 C 159.500 40.000,160.400 39.820,160.400 39.600 C 160.400 39.378,161.467 39.200,162.800 39.200 C 164.133 39.200,165.200 39.022,165.200 38.800 C 165.200 38.580,166.016 38.400,167.013 38.400 C 168.255 38.400,168.898 38.211,169.055 37.800 C 169.229 37.347,169.961 37.200,172.043 37.200 C 173.614 37.200,174.800 37.028,174.800 36.800 C 174.800 36.561,176.333 36.400,178.600 36.400 C 181.711 36.400,182.400 36.291,182.400 35.800 C 182.400 35.288,183.489 35.200,189.800 35.200 C 194.467 35.200,197.200 35.052,197.200 34.800 C 197.200 34.561,198.733 34.400,201.000 34.400 C 203.267 34.400,204.800 34.561,204.800 34.800 " stroke="none" fill="#040404" fill-rule="evenodd"></path><path id="path1" d="" stroke="none" fill="#fff" fill-rule="evenodd"></path><path id="path2" d="" stroke="none" fill="#fff" fill-rule="evenodd"></path><path id="path3" d="" stroke="none" fill="#fff" fill-rule="evenodd"></path><path id="path4" d="" stroke="none" fill="#fff" fill-rule="evenodd"></path></g></svg>